<svg id="agile_plus" data-name="agile plus" xmlns="http://www.w3.org/2000/svg" width="52" height="52" viewBox="0 0 52 52">
  <rect id="Прямоугольник_11" data-name="Прямоугольник 11" width="52" height="52" rx="7" fill="#d5e9f8"/>
  <g id="agile" transform="translate(14 14)">
    <path id="agile-2" data-name="agile" d="M20.107,26.222h7.2a.694.694,0,1,1,0,1.389H3.694a.694.694,0,0,1,0-1.389H15.5a6.947,6.947,0,0,0,3.159-13.131.657.657,0,0,1-.077-.039,6.953,6.953,0,0,0-7.249.67h2.085a.694.694,0,0,1,0,1.389H9.25a.694.694,0,0,1-.694-.694V10.25a.694.694,0,1,1,1.389,0v2.816a8.328,8.328,0,0,1,7.264-1.946,4.357,4.357,0,0,1-.319-1.565,4.167,4.167,0,0,1,4.167-4.167h.407l-.2-.2a.694.694,0,1,1,.982-.982L23.63,5.592a.7.7,0,0,1,0,.982L22.241,7.963a.694.694,0,1,1-.982-.982l.2-.2h-.407a2.778,2.778,0,0,0-2.778,2.778,3.531,3.531,0,0,0,1.044,2.314,8.336,8.336,0,0,1,.785,14.352Z" transform="translate(-3 -4)" fill="#1273eb"/>
  </g>
</svg>
