<svg id="heart_plus" data-name="heart plus" xmlns="http://www.w3.org/2000/svg" width="52" height="52" viewBox="0 0 52 52">
  <rect id="Прямоугольник_11" data-name="Прямоугольник 11" width="52" height="52" rx="7" fill="#d5e9f8"/>
  <g id="heart" transform="translate(14 15)">
    <path id="heart-2" data-name="heart" d="M26.611,12.333c0-4.389-2.385-6.944-6.25-6.944a4.288,4.288,0,0,0-4.24,2.394.694.694,0,0,1-1.242,0,4.288,4.288,0,0,0-4.24-2.394c-3.865,0-6.25,2.556-6.25,6.944,0,3.332,3.679,7.5,11.111,12.366C22.932,19.832,26.611,15.665,26.611,12.333ZM20.361,4C25.015,4,28,7.2,28,12.333c0,4.019-4.067,8.565-12.123,13.777a.7.7,0,0,1-.754,0C7.067,20.9,3,16.353,3,12.333,3,7.2,5.985,4,10.639,4A5.776,5.776,0,0,1,15.5,6.161,5.776,5.776,0,0,1,20.361,4Z" transform="translate(-3 -4)" fill="#1273eb"/>
  </g>
</svg>
