<svg id="diamond_plus" data-name="diamond plus" xmlns="http://www.w3.org/2000/svg" width="52" height="52" viewBox="0 0 52 52">
  <rect id="Прямоугольник_11" data-name="Прямоугольник 11" width="52" height="52" rx="7" fill="#d5e9f8"/>
  <path id="diamond" d="M20.862,10.5l.869-5.212L25.207,10.5Zm-.317,1.25h4.464l-8.482,9.822Zm-12.09,0,4.019,9.822L3.99,11.75ZM8.137,10.5H3.792L7.268,5.287Zm1.114-.919L8.362,4.25H13.25Zm6.5-5.331h4.887l-.889,5.331ZM10.125,10.5,14.5,4.666,18.875,10.5Zm9.069,1.25L14.5,23.225,9.806,11.75Zm7.7-.971-5-7.5s0,0-.006-.006a.6.6,0,0,0-.2-.185c-.024-.014-.05-.017-.074-.029a.638.638,0,0,0-.134-.05c-.02,0-.04,0-.061,0S21.39,3,21.375,3H7.625c-.015,0-.027.01-.042.01s-.039-.005-.06,0a.6.6,0,0,0-.133.05.646.646,0,0,0-.074.029.592.592,0,0,0-.2.185L7.1,3.279l-5,7.5a.626.626,0,0,0,.047.755l11.875,13.75a.572.572,0,0,0,.094.07.564.564,0,0,0,.082.061.609.609,0,0,0,.593,0,.564.564,0,0,0,.082-.061.641.641,0,0,0,.1-.07l11.875-13.75a.624.624,0,0,0,.046-.755Z" transform="translate(12 12)" fill="#1273eb"/>
</svg>
