<svg id="piggybank_plus" data-name="piggybank plus" xmlns="http://www.w3.org/2000/svg" width="52" height="52" viewBox="0 0 52 52">
  <rect id="Прямоугольник_11" data-name="Прямоугольник 11" width="52" height="52" rx="7" fill="#d5e9f8"/>
  <g id="piggybank" transform="translate(14 15)">
    <path id="piggybank-2" data-name="piggybank" d="M3.37,15.6A2.842,2.842,0,0,1,1,12.8V11.659a.568.568,0,1,1,1.136,0V12.8a1.705,1.705,0,0,0,1.144,1.61q-.007-.234-.007-.474c0-4,4.1-7.386,10.8-7.386A17.238,17.238,0,0,1,18.246,7a3.98,3.98,0,0,1,3.777-2.728.568.568,0,0,1,.568.568v4.7a6.591,6.591,0,0,1,.95,1.551h1.891a.568.568,0,0,1,.568.568V16.2a.568.568,0,0,1-.568.568H23.676a5.421,5.421,0,0,1-2.221,3.121v4.266a.568.568,0,0,1-.568.568H17.477a.568.568,0,0,1-.568-.568v-1.7H11.227v1.7a.568.568,0,0,1-.568.568H7.25a.568.568,0,0,1-.568-.568V21.091A6.848,6.848,0,0,1,3.37,15.6ZM19.218,7.8a.568.568,0,0,1-.728.453,15.177,15.177,0,0,0-4.422-.566c-6.107,0-9.659,2.934-9.659,6.25,0,3.21,1.035,5.28,3.1,6.31a.568.568,0,0,1,.314.508v2.841h2.273v-1.7a.568.568,0,0,1,.568-.568h6.818a.568.568,0,0,1,.568.568v1.7h2.273V19.614a.568.568,0,0,1,.227-.455c1.386-1.04,2.045-2.029,2.045-2.955a.568.568,0,0,1,.568-.568h1.7V12.227h-1.7a.568.568,0,0,1-.532-.369,5.5,5.5,0,0,0-1.03-1.733.568.568,0,0,1-.142-.376V5.466A2.842,2.842,0,0,0,19.218,7.8ZM11.227,4.841a.568.568,0,1,1-1.136,0A2.841,2.841,0,0,1,12.932,2h.028A2.841,2.841,0,0,1,15.8,4.841a.568.568,0,0,1-1.136,0,1.7,1.7,0,0,0-1.7-1.7h-.028A1.7,1.7,0,0,0,11.227,4.841Zm7.955,8.523a1.136,1.136,0,1,1,1.136-1.136A1.136,1.136,0,0,1,19.182,13.364Z" transform="translate(-1 -2)" fill="#1273eb"/>
  </g>
</svg>
