<svg id="Target_plus" data-name="Target plus" xmlns="http://www.w3.org/2000/svg" width="52" height="52" viewBox="0 0 52 52">
  <rect id="Прямоугольник_11" data-name="Прямоугольник 11" width="52" height="52" rx="7" fill="#d5e9f8"/>
  <g id="Target" transform="translate(14 14)">
    <path id="Контур_20" data-name="Контур 20" d="M23.5,7.752a.416.416,0,0,0,.426-.1l2.86-2.86a.416.416,0,0,0-.235-.706l-1.511-.216-.216-1.511a.416.416,0,0,0-.706-.235l-2.86,2.86a.416.416,0,0,0-.1.426L21.6,6.724l-.779.779a11.252,11.252,0,1,0,.588.588l.779-.779Zm.08,7.979a10.417,10.417,0,1,1-3.351-7.639L18.462,9.863a7.936,7.936,0,1,0,.588.588L20.822,8.68a10.361,10.361,0,0,1,2.763,7.05Zm-10.7.294a.416.416,0,0,0,.588,0l1.738-1.738a2.5,2.5,0,1,1-.588-.588l-1.738,1.738a.416.416,0,0,0,0,.588ZM15.22,13.1a3.34,3.34,0,1,0,.588.588l2.653-2.653a7.1,7.1,0,1,1-.588-.588Zm8.9-9.805.142,1a.416.416,0,0,0,.353.353l1,.142-2.09,2.09-1.119-.373-.373-1.119Z" transform="translate(-1.913 -2)" fill="#1273eb"/>
  </g>
</svg>
