<svg xmlns="http://www.w3.org/2000/svg" width="63.814" height="63.544" viewBox="0 0 63.814 63.544">
  <g id="ic1" transform="translate(1.75 1.794)">
    <path id="Контур_94" data-name="Контур 94" d="M49.22,25.232a6.062,6.062,0,0,0-1.8,4.913,6.416,6.416,0,0,0,6.494,5.636h5.712v3.587A11.344,11.344,0,0,1,48.318,50.7H13.8A11.344,11.344,0,0,1,2.5,39.368V19.083A11.344,11.344,0,0,1,13.8,7.75H48.318a11.344,11.344,0,0,1,11.3,11.333v4.34H53.55A5.984,5.984,0,0,0,49.22,25.232Z" transform="translate(-2.5 9.299)" fill="none" stroke="#1487c9" stroke-linecap="round" stroke-linejoin="round" stroke-width="3.5"/>
    <path id="Контур_95" data-name="Контур 95" d="M2.5,33.285V19.511a8.583,8.583,0,0,1,5.546-8.048L31.978,2.421a5.728,5.728,0,0,1,7.746,5.365V19.239" transform="translate(-2.5 -2.046)" fill="none" stroke="#1487c9" stroke-linecap="round" stroke-linejoin="round" stroke-width="3.5"/>
    <path id="Контур_96" data-name="Контур 96" d="M32.889,16.025v6.209a3.1,3.1,0,0,1-3.014,3.074H23.968a6.427,6.427,0,0,1-6.51-5.636,6.211,6.211,0,0,1,6.149-6.721h6.269A3.1,3.1,0,0,1,32.889,16.025Z" transform="translate(27.425 19.818)" fill="none" stroke="#1487c9" stroke-linecap="round" stroke-linejoin="round" stroke-width="3.5"/>
    <path id="Контур_97" data-name="Контур 97" d="M7,12H28.1" transform="translate(6.513 17.931)" fill="none" stroke="#1487c9" stroke-linecap="round" stroke-linejoin="round" stroke-width="3.5"/>
  </g>
</svg>
