<svg id="ic2" xmlns="http://www.w3.org/2000/svg" width="41.983" height="60" viewBox="0 0 41.983 60">
  <path id="ic2-2" data-name="ic2" d="M28.99,19.993V5h-3V19.993Zm3,0h3V9.5a4.5,4.5,0,0,0-3-4.242V19.993Zm-9,0V5h-1.5A4.5,4.5,0,0,0,17,9.5v10.5Zm14.994-6h1.5a7.5,7.5,0,0,1,7.5,7.5V54.5a7.5,7.5,0,0,1-7.5,7.5H12.5A7.5,7.5,0,0,1,5,54.5V21.492A7.5,7.5,0,0,1,12.5,14H14V9.5a7.5,7.5,0,0,1,7.5-7.5h9a7.5,7.5,0,0,1,7.5,7.5Zm-23.99,3H12.5a4.5,4.5,0,0,0-4.5,4.5V54.5A4.5,4.5,0,0,0,12.5,59H39.486a4.5,4.5,0,0,0,4.5-4.5V21.492a4.5,4.5,0,0,0-4.5-4.5h-1.5v3h1.5a1.5,1.5,0,0,1,0,3H12.5a1.5,1.5,0,0,1,0-3H14Zm-1.5,9H39.486a1.5,1.5,0,0,1,1.5,1.5v9a1.5,1.5,0,0,1-1.5,1.5H12.5a1.5,1.5,0,0,1-1.5-1.5v-9A1.5,1.5,0,0,1,12.5,25.99Zm1.5,3v6h23.99v-6Zm1.5,14.994a1.5,1.5,0,1,1,0-3h3a1.5,1.5,0,1,1,0,3Zm9,0a1.5,1.5,0,0,1,0-3h3a1.5,1.5,0,1,1,0,3Zm9,0a1.5,1.5,0,0,1,0-3h3a1.5,1.5,0,1,1,0,3Zm-17.993,6a1.5,1.5,0,1,1,0-3h3a1.5,1.5,0,1,1,0,3Zm9,0a1.5,1.5,0,0,1,0-3h3a1.5,1.5,0,1,1,0,3Zm9,0a1.5,1.5,0,0,1,0-3h3a1.5,1.5,0,0,1,0,3Zm-17.993,6a1.5,1.5,0,0,1,0-3h3a1.5,1.5,0,1,1,0,3Zm9,0a1.5,1.5,0,0,1,0-3h3a1.5,1.5,0,1,1,0,3Zm9,0a1.5,1.5,0,0,1,0-3h3a1.5,1.5,0,0,1,0,3Z" transform="translate(-5 -2)" fill="#ed6f26"/>
</svg>
