<svg xmlns="http://www.w3.org/2000/svg" width="63.509" height="63.5" viewBox="0 0 63.509 63.5">
  <g id="ic3" transform="translate(1.75 1.75)">
    <path id="Контур_98" data-name="Контур 98" d="M3.93,39.871,39.871,3.929" transform="translate(1.874 1.869)" fill="none" stroke="#d90751" stroke-linecap="round" stroke-linejoin="round" stroke-width="3.5"/>
    <path id="Контур_99" data-name="Контур 99" d="M11.1,20.688l3.609-3.609" transform="translate(16.202 28.154)" fill="none" stroke="#d90751" stroke-linecap="round" stroke-linejoin="round" stroke-width="3.5"/>
    <path id="Контур_100" data-name="Контур 100" d="M13.793,20.387,20.981,13.2" transform="translate(21.58 20.387)" fill="none" stroke="#d90751" stroke-linecap="round" stroke-linejoin="round" stroke-width="3.5"/>
    <path id="Контур_101" data-name="Контур 101" d="M6.8,26.718,26.728,6.795C33.089.434,36.269.4,42.57,6.7L57.3,21.437c6.3,6.3,6.271,9.481-.09,15.842L37.289,57.2c-6.361,6.361-9.541,6.391-15.842.09L6.715,42.56C.414,36.259.414,33.109,6.8,26.718Z" transform="translate(-2 -2.001)" fill="none" stroke="#d90751" stroke-linecap="round" stroke-linejoin="round" stroke-width="3.5"/>
    <path id="Контур_102" data-name="Контур 102" d="M2,22H62.009" transform="translate(-2 38.001)" fill="none" stroke="#d90751" stroke-linecap="round" stroke-linejoin="round" stroke-width="3.5"/>
  </g>
</svg>
