<svg xmlns="http://www.w3.org/2000/svg" width="45.742" height="63.5" viewBox="0 0 45.742 63.5">
  <g id="ic4" transform="translate(1.75 1.75)">
    <path id="Контур_103" data-name="Контур 103" d="M21.606,2A14.21,14.21,0,0,0,7.25,16.032a14.137,14.137,0,0,0,13.994,14,2.494,2.494,0,0,1,.665,0h.212a14.148,14.148,0,0,0,13.843-14A14.21,14.21,0,0,0,21.606,2Z" transform="translate(-0.488 -2)" fill="none" stroke="#5b57a2" stroke-width="3.5"/>
    <path id="Контур_104" data-name="Контур 104" d="M41.323,16.875c-8.37-5.494-22.021-5.494-30.452,0-3.81,2.511-5.91,5.908-5.91,9.541s2.1,7,5.88,9.482a28.043,28.043,0,0,0,15.241,4.165A28.044,28.044,0,0,0,41.323,35.9c3.78-2.511,5.88-5.879,5.88-9.541C47.173,22.724,45.1,19.356,41.323,16.875Z" transform="translate(-4.961 19.936)" fill="none" stroke="#5b57a2" stroke-width="3.5"/>
  </g>
</svg>
