<svg id="ic5" xmlns="http://www.w3.org/2000/svg" width="48.641" height="60" viewBox="0 0 48.641 60">
  <path id="path66" d="M0,26.12,7.34,39.005v7.86L.009,59.724Z" transform="translate(0 -12.927)" fill="#5b57a2"/>
  <path id="path68" d="M55.8,38.5l6.878-4.216,14.076-.013L55.8,47.108Z" transform="translate(-28.111 -17.183)" fill="#d90751"/>
  <path id="path70" d="M48.55,13.116l.039,17.371-7.357-4.521V0L48.55,13.116Z" transform="translate(-20.653)" fill="#fab718"/>
  <path id="path72" d="M69.543,17.311l-14.077.013L48.55,13.116,41.231,0,69.542,17.311Z" transform="translate(-20.902)" fill="#ed6f26"/>
  <path id="path74" d="M48.588,81.4V72.977l-7.357-4.435,0,25.992Z" transform="translate(-20.653 -34.534)" fill="#63b22f"/>
  <path id="path76" d="M34.69,56.233,7.265,39.24,0,26.12l48.611,30.1-13.922.017Z" transform="translate(0 -13.192)" fill="#1487c9"/>
  <path id="path78" d="M41.24,103.027,48.592,89.9l6.861-4.177L69.517,85.7Z" transform="translate(-20.906 -43.027)" fill="#017f36"/>
  <path id="path80" d="M.017,77.113,20.895,64.324l-7.019-4.307-6.527,4Z" transform="translate(-0.008 -30.129)" fill="#984995"/>
</svg>
