<svg id="JCB" xmlns="http://www.w3.org/2000/svg" xmlns:xlink="http://www.w3.org/1999/xlink" width="80" height="80" viewBox="0 0 80 80">
  <defs>
    <linearGradient id="linear-gradient" y1="0.848" x2="1" y2="0.825" gradientUnits="objectBoundingBox">
      <stop offset="0" stop-color="#007b40"/>
      <stop offset="1" stop-color="#55b330"/>
    </linearGradient>
    <linearGradient id="linear-gradient-2" x1="-0.968" y1="0.779" x2="1" y2="0.802" gradientUnits="objectBoundingBox">
      <stop offset="0" stop-color="#1d2970"/>
      <stop offset="1" stop-color="#006dba"/>
    </linearGradient>
    <linearGradient id="linear-gradient-3" x1="-0.295" y1="0.733" x2="1.336" y2="0.733" gradientUnits="objectBoundingBox">
      <stop offset="0" stop-color="#6e2b2f"/>
      <stop offset="1" stop-color="#e30138"/>
    </linearGradient>
  </defs>
  <rect id="Прямоугольник_11" data-name="Прямоугольник 11" width="80" height="80" rx="9" fill="#fff"/>
  <g id="jcb_payment_method_icon_142754" transform="translate(-118.759 -28.874)">
    <path id="path3494" d="M184.585,80.74a8.061,8.061,0,0,1-8.061,8.061H132.759V56.937a8.061,8.061,0,0,1,8.062-8.063h43.764V80.74Z" fill="#fff"/>
    <path id="path3496" d="M460.315,91.97c1.25.027,2.507-.055,3.752.043a1.539,1.539,0,0,1,.445,2.769,6.181,6.181,0,0,1-2.5.226h-1.7V91.97Zm4.475-3.439a1.433,1.433,0,0,1-1.611,1.725h-2.864c.02-.924-.039-1.928.029-2.8,1.147.032,2.3-.066,3.445.051a1.364,1.364,0,0,1,1,1.027Zm6.892-14.538c.053,1.872.008,3.843.023,5.753,0,7.766.007,15.532-.006,23.3a5.781,5.781,0,0,1-5.52,5.5c-2.893.012-5.786,0-8.68.005V96.806c3.153-.016,6.307.033,9.458-.025,1.462-.092,3.063-1.056,3.131-2.665.172-1.616-1.351-2.733-2.8-2.91-.556-.014-.54-.162,0-.226a2.634,2.634,0,0,0,2.057-3.156c-.346-1.5-2.008-2.086-3.39-2.083-2.819-.019-5.638,0-8.457-.008.018-2.192-.038-4.386.03-6.576a5.783,5.783,0,0,1,5.717-5.164Z" transform="translate(-289.998 -22.432)" fill="url(#linear-gradient)"/>
    <path id="path3498" d="M159.116,79.452A5.781,5.781,0,0,1,164.665,74c2.882-.009,5.765,0,8.647,0-.008,9.722.016,19.445-.012,29.167a5.781,5.781,0,0,1-5.528,5.382c-2.888.01-5.776,0-8.664,0V96.408a22.666,22.666,0,0,0,8.608.505c1.711-.275,3.582-1.115,4.161-2.89a20.108,20.108,0,0,0,.25-4.674V85.732h-4.952c-.022,2.393.046,4.79-.036,7.18a2.8,2.8,0,0,1-2.974,2.353,20.743,20.743,0,0,1-5.124-1.245c-.009-4.484.05-10.1.074-14.567Z" transform="translate(-23.471 -22.431)" fill="url(#linear-gradient-2)"/>
    <path id="path3500" d="M308.59,87.186c-.261.055-.053-.888-.119-1.246.018-2.262-.037-4.527.03-6.788a5.783,5.783,0,0,1,5.748-5.165h8.426c-.008,9.722.016,19.445-.012,29.167a5.781,5.781,0,0,1-5.529,5.382c-2.888.011-5.776,0-8.664,0v-13.3c1.973,1.618,4.653,1.87,7.111,1.875a23.871,23.871,0,0,0,5.493-.713V93.968a9.742,9.742,0,0,1-6.658,1.072,3.625,3.625,0,0,1-2.68-3.523,3.726,3.726,0,0,1,2.458-3.959,9.062,9.062,0,0,1,6.215.684c.412.216.831.484.666-.205V86.121a20.649,20.649,0,0,0-9.877-.214,7.247,7.247,0,0,0-2.608,1.279Z" transform="translate(-156.901 -22.425)" fill="url(#linear-gradient-3)"/>
  </g>
</svg>
