<svg id="mc" xmlns="http://www.w3.org/2000/svg" width="80" height="80" viewBox="0 0 80 80">
  <rect id="Прямоугольник_11" data-name="Прямоугольник 11" width="80" height="80" rx="9" fill="#fff"/>
  <g id="mastercard_payment_method_icon_142750_1_" data-name="mastercard_payment_method_icon_142750 (1)" transform="translate(13.231 18.982)">
    <path id="Контур_91" data-name="Контур 91" d="M164.633,372.4v-2.791a1.625,1.625,0,0,0-1.721-1.768,1.839,1.839,0,0,0-1.582.786,1.618,1.618,0,0,0-1.488-.786,1.58,1.58,0,0,0-1.348.652v-.562h-.884V372.4h.884v-2.555a1.042,1.042,0,0,1,1.117-1.163c.652,0,1.023.419,1.023,1.163V372.4h.884v-2.559a1.042,1.042,0,0,1,1.117-1.163c.652,0,1.023.419,1.023,1.163V372.4Zm14.515-4.42h-1.629v-1.348h-.882v1.348h-.93v.786h.93v2.1c0,1.023.372,1.629,1.488,1.629a2.6,2.6,0,0,0,1.208-.326l-.28-.786a1.531,1.531,0,0,1-.838.233.651.651,0,0,1-.7-.745v-2.139h1.629v-.745Zm8.281-.139a1.392,1.392,0,0,0-1.21.652v-.562h-.884V372.4h.884v-2.508c0-.745.372-1.21.977-1.21a2.721,2.721,0,0,1,.6.093l.28-.838A3.146,3.146,0,0,0,187.429,367.845Zm-12.515.465a3.192,3.192,0,0,0-1.814-.465c-1.117,0-1.814.512-1.814,1.4,0,.745.512,1.163,1.488,1.3l.465.046c.512.093.838.28.838.512,0,.326-.372.562-1.07.562a2.453,2.453,0,0,1-1.488-.465l-.465.7a3.381,3.381,0,0,0,1.91.562c1.3,0,2-.6,2-1.442,0-.786-.562-1.163-1.536-1.3l-.465-.046c-.419-.046-.786-.186-.786-.465,0-.326.372-.562.884-.562a3.349,3.349,0,0,1,1.4.372Zm13.492,1.861a2.2,2.2,0,0,0,2.326,2.326,2.31,2.31,0,0,0,1.582-.512l-.465-.7a1.88,1.88,0,0,1-1.163.419,1.489,1.489,0,0,1,0-2.972,1.88,1.88,0,0,1,1.163.419l.465-.7a2.316,2.316,0,0,0-1.582-.512,2.1,2.1,0,0,0-2.326,2.233h0Zm-6.234-2.326a2.14,2.14,0,0,0-2.187,2.326,2.185,2.185,0,0,0,2.279,2.326,2.845,2.845,0,0,0,1.814-.6l-.465-.652a2.223,2.223,0,0,1-1.3.465,1.3,1.3,0,0,1-1.348-1.163h3.3v-.372a2.1,2.1,0,0,0-2.094-2.326h0Zm-.046.838a1.112,1.112,0,0,1,1.163,1.117H180.87A1.26,1.26,0,0,1,182.126,368.683Zm-12.049,1.488v-2.233h-.884v.562a1.7,1.7,0,0,0-1.442-.651,2.331,2.331,0,0,0,0,4.653,1.71,1.71,0,0,0,1.442-.651v.562h.884Zm-3.582,0a1.377,1.377,0,1,1,1.4,1.488A1.346,1.346,0,0,1,166.494,370.171Zm34.381-2.326a1.392,1.392,0,0,0-1.21.652v-.562h-.884V372.4h.883v-2.508c0-.745.372-1.21.977-1.21a2.721,2.721,0,0,1,.6.093l.28-.838a3.145,3.145,0,0,0-.651-.093Zm-3.443,2.326v-2.233h-.884v.562a1.7,1.7,0,0,0-1.442-.651,2.331,2.331,0,0,0,0,4.653,1.71,1.71,0,0,0,1.442-.651v.562h.884Zm-3.582,0a1.377,1.377,0,1,1,1.4,1.488A1.346,1.346,0,0,1,193.85,370.171Zm12.562,0v-4h-.884V368.5a1.7,1.7,0,0,0-1.442-.652,2.331,2.331,0,0,0,0,4.653,1.71,1.71,0,0,0,1.442-.651v.562h.884Zm-3.582,0a1.377,1.377,0,1,1,1.4,1.488,1.345,1.345,0,0,1-1.4-1.488Z" transform="translate(-155.022 -330.471)"/>
    <g id="Сгруппировать_157" data-name="Сгруппировать 157" transform="translate(-0.231 0.018)">
      <rect id="Прямоугольник_128" data-name="Прямоугольник 128" width="16.144" height="26.332" transform="translate(19.1 3.58)" fill="#ff5f00"/>
      <path id="Контур_92" data-name="Контур 92" d="M153.238,65.264A16.791,16.791,0,0,1,159.609,52.1a16.748,16.748,0,1,0,0,26.33A16.793,16.793,0,0,1,153.238,65.264Z" transform="translate(-132.509 -48.518)" fill="#eb001b"/>
      <path id="Контур_93" data-name="Контур 93" d="M401.331,65.284A16.731,16.731,0,0,1,374.26,78.45a16.785,16.785,0,0,0,0-26.332,16.731,16.731,0,0,1,27.071,13.166Z" transform="translate(-347.104 -48.538)" fill="#f79e1b"/>
    </g>
  </g>
</svg>
