<svg id="visa" xmlns="http://www.w3.org/2000/svg" width="80" height="80" viewBox="0 0 80 80">
  <rect id="Прямоугольник_11" data-name="Прямоугольник 11" width="80" height="80" rx="9" fill="#fff"/>
  <g id="visa-2" data-name="visa" transform="translate(-37.197 -104.465)">
    <path id="Shape" d="M278.2,157.895l3.311-19.43h5.3l-3.313,19.43Z" transform="translate(-210.014 -3.603)" fill="#006cb5"/>
    <path id="path13" d="M380.088,135.281a13.676,13.676,0,0,0-4.746-.816c-5.233,0-8.919,2.635-8.951,6.412-.029,2.792,2.632,4.349,4.64,5.279,2.061.953,2.754,1.56,2.745,2.41-.013,1.3-1.646,1.9-3.168,1.9a11.1,11.1,0,0,1-4.985-1.02l-.683-.309-.743,4.35a16.764,16.764,0,0,0,5.9,1.037c5.567,0,9.181-2.605,9.222-6.638.02-2.21-1.391-3.892-4.447-5.279-1.851-.9-2.985-1.5-2.973-2.409,0-.808.96-1.671,3.033-1.671a9.77,9.77,0,0,1,3.964.744l.475.224.718-4.211" transform="translate(-287.477)" fill="#006cb5"/>
    <path id="Path" d="M527.93,138.464h-4.092a2.635,2.635,0,0,0-2.773,1.611L513.2,157.881h5.561s.909-2.394,1.115-2.92l6.782.008c.158.68.644,2.911.644,2.911h4.914l-4.286-19.417Zm-6.493,12.546c.438-1.119,2.11-5.431,2.11-5.431-.031.052.435-1.125.7-1.854l.358,1.675s1.014,4.638,1.226,5.61h-4.4Z" transform="translate(-421.692 -3.602)" fill="#006cb5"/>
    <g id="_8408-visa_102499" data-name="8408-visa_102499" transform="translate(43.198 134.465)">
      <path id="_380520792" d="M20.815,2.661,12.278,22.513l-5.739.007L1.679,5.892,1.285,4.639l.032.018.053.03-.052-.027v0l.076.042A21.266,21.266,0,0,1,8.55,10.961c.365,1.824.715,3.48,1.209,5.267L15.07,2.661h5.745Z" transform="translate(4.396 -2.465)" fill="#006cb5" fill-rule="evenodd"/>
      <path id="_380520408" d="M.853,2.646l9.171.006a2.182,2.182,0,0,1,2.363,1.612L13.8,11.143A21.265,21.265,0,0,0,6.643,4.88l-.076-.042v0l.052.027-.053-.03q-.219-.12-.443-.236A23.341,23.341,0,0,0,.853,2.646Z" transform="translate(-0.853 -2.646)" fill="#faa841" fill-rule="evenodd"/>
    </g>
  </g>
</svg>
