<svg id="insta_instagram" xmlns="http://www.w3.org/2000/svg" width="34.493" height="34.493" viewBox="0 0 34.493 34.493">
  <g id="Сгруппировать_6" data-name="Сгруппировать 6">
    <circle id="Эллипс_1" data-name="Эллипс 1" cx="17.164" cy="17.164" r="17.164" transform="translate(0.163 0.165)" fill="#464646"/>
    <path id="Контур_10" data-name="Контур 10" d="M28.6,15.284A17.246,17.246,0,1,1,11.355,32.53,17.254,17.254,0,0,1,28.6,15.284Zm0,.539A16.707,16.707,0,1,1,11.894,32.53,16.715,16.715,0,0,1,28.6,15.823Z" transform="translate(-11.355 -15.284)" fill="#fff" fill-rule="evenodd"/>
  </g>
  <g id="Сгруппировать_7" data-name="Сгруппировать 7" transform="translate(12.835 12.899)">
    <circle id="Эллипс_2" data-name="Эллипс 2" cx="4.379" cy="4.379" r="4.379" fill="#eee"/>
  </g>
  <g id="Сгруппировать_8" data-name="Сгруппировать 8" transform="translate(6.208 6.209)">
    <path id="Контур_11" data-name="Контур 11" d="M114.747,98.12a5.963,5.963,0,0,0-5.96-5.96H98.632a5.963,5.963,0,0,0-5.96,5.96v10.155a5.963,5.963,0,0,0,5.96,5.96h10.155a5.963,5.963,0,0,0,5.96-5.96Zm-11.069-.146a5.255,5.255,0,1,1-5.255,5.255A5.257,5.257,0,0,1,103.678,97.974Zm6.1-1.534a.757.757,0,1,1-.757.757A.757.757,0,0,1,109.782,96.441Z" transform="translate(-92.672 -92.16)" fill="#eee" fill-rule="evenodd"/>
    <path id="Контур_12" data-name="Контур 12" d="M114.747,98.12a5.963,5.963,0,0,0-5.96-5.96H98.632a5.963,5.963,0,0,0-5.96,5.96v10.155a5.963,5.963,0,0,0,5.96,5.96h10.155a5.963,5.963,0,0,0,5.96-5.96Zm-.69,0v10.155a5.273,5.273,0,0,1-5.27,5.27H98.632a5.273,5.273,0,0,1-5.27-5.27V98.12a5.273,5.273,0,0,1,5.27-5.27h10.155A5.273,5.273,0,0,1,114.057,98.12Zm-10.379-.836a5.945,5.945,0,1,0,5.945,5.945A5.947,5.947,0,0,0,103.678,97.285Zm0,.69a5.255,5.255,0,1,1-5.255,5.255A5.257,5.257,0,0,1,103.678,97.974Zm6.1-2.224a1.447,1.447,0,1,0,1.447,1.447A1.447,1.447,0,0,0,109.782,95.751Zm0,.69a.757.757,0,1,1-.757.757A.757.757,0,0,1,109.782,96.441Z" transform="translate(-92.672 -92.16)" fill="#eee" fill-rule="evenodd"/>
  </g>
</svg>
