<svg id="tg_active_с" data-name="tg active_с" xmlns="http://www.w3.org/2000/svg" width="34" height="34" viewBox="0 0 34 34">
  <g id="Сгруппировать_9" data-name="Сгруппировать 9">
    <circle id="Эллипс_3" data-name="Эллипс 3" cx="17" cy="17" r="17" transform="translate(0 0)" fill="#12a4eb"/>
    <path id="Контур_13" data-name="Контур 13" d="M28.355,15.284a17,17,0,1,1-17,17A17.008,17.008,0,0,1,28.355,15.284Zm0,.531A16.468,16.468,0,1,1,11.886,32.283,16.476,16.476,0,0,1,28.355,15.815Z" transform="translate(-11.355 -15.284)" fill="#fff" fill-rule="evenodd"/>
  </g>
  <path id="telegram" d="M6.671,11.337l-.282,3.955a.983.983,0,0,0,.785-.38l1.887-1.8,3.909,2.867c.717.4,1.222.189,1.415-.659L16.951,3.29h0c.227-1.059-.383-1.475-1.082-1.214L.789,7.848c-1.03.4-1.013.973-.175,1.233l3.855,1.2,8.956-5.609c.421-.279.805-.125.49.155Z" transform="translate(7 8)" fill="#eee"/>
</svg>
