<svg id="vk" xmlns="http://www.w3.org/2000/svg" width="34" height="34" viewBox="0 0 34 34">
  <g id="Сгруппировать_9" data-name="Сгруппировать 9">
    <circle id="Эллипс_3" data-name="Эллипс 3" cx="17" cy="17" r="17" transform="translate(0 0)" fill="#464646"/>
    <path id="Контур_13" data-name="Контур 13" d="M28.355,15.284a17,17,0,1,1-17,17A17.008,17.008,0,0,1,28.355,15.284Zm0,.531A16.468,16.468,0,1,1,11.886,32.283,16.476,16.476,0,0,1,28.355,15.815Z" transform="translate(-11.355 -15.284)" fill="#fff" fill-rule="evenodd"/>
  </g>
  <path id="vk-2" data-name="vk" d="M17.065,11.881c-.333-.419-.237-.607,0-.982A27.358,27.358,0,0,0,20.1,5.813h0c.14-.462,0-.814-.68-.814H17.17a.965.965,0,0,0-.977.626,18.39,18.39,0,0,1-2.765,4.516c-.522.513-.771.678-1.05.678-.14,0-.359-.165-.359-.633V5.816c0-.563-.154-.814-.633-.814H7.85a.538.538,0,0,0-.572.507c0,.533.809.655.894,2.158v3.251c0,.714-.129.845-.416.845-.771,0-2.62-2.751-3.719-5.9C3.815,5.25,3.6,5,3.021,5H.771C.129,5,0,5.3,0,5.628a17.6,17.6,0,0,0,3.554,7.329A8.8,8.8,0,0,0,10.414,17c1.432,0,1.606-.308,1.606-.858,0-2.5-.129-2.74.587-2.74.333,0,.9.165,2.241,1.429,1.527,1.5,1.779,2.17,2.634,2.17h2.246c.641,0,.966-.308.778-.937a19.69,19.69,0,0,0-3.442-4.178Z" transform="translate(7 6.004)" fill="#eee"/>
</svg>
