<svg id="whatsapp" xmlns="http://www.w3.org/2000/svg" width="34" height="34" viewBox="0 0 34 34">
  <g id="Сгруппировать_9" data-name="Сгруппировать 9">
    <circle id="Эллипс_3" data-name="Эллипс 3" cx="17" cy="17" r="17" transform="translate(0 0)" fill="#464646"/>
    <path id="Контур_13" data-name="Контур 13" d="M28.355,15.284a17,17,0,1,1-17,17A17.008,17.008,0,0,1,28.355,15.284Zm0,.531A16.468,16.468,0,1,1,11.886,32.283,16.476,16.476,0,0,1,28.355,15.815Z" transform="translate(-11.355 -15.284)" fill="#fff" fill-rule="evenodd"/>
  </g>
  <g id="Сгруппировать_10" data-name="Сгруппировать 10" transform="translate(6.199 5.859)">
    <path id="Контур_14" data-name="Контур 14" d="M95.787,101.54a10.776,10.776,0,1,1,4.809,4.62h0l-5.524,1.076.715-5.7Zm1.488,3.334,3.631-.685h0A8.894,8.894,0,1,0,97.76,101.2h0Z" transform="translate(-94.506 -85.627)" fill="#eee" fill-rule="evenodd"/>
  </g>
  <g id="Сгруппировать_11" data-name="Сгруппировать 11" transform="translate(11.631 11.283)">
    <path id="Контур_15" data-name="Контур 15" d="M187.052,175.506a10.948,10.948,0,0,0-2.373-1.438.557.557,0,0,0-.534.04l-1.117,1.221a.305.305,0,0,1-.327.016,7.83,7.83,0,0,1-3.652-3.574.277.277,0,0,1-.016-.287l.806-.9a.746.746,0,0,0,.072-.822l-.694-1.943a.767.767,0,0,0-.343-.447,1.812,1.812,0,0,0-1.217.069c-1.614.926-1.754,2.9-.535,5.037a12.245,12.245,0,0,0,3.464,3.985,12.453,12.453,0,0,0,3.367,1.468,3.507,3.507,0,0,0,1.167-.024A2.247,2.247,0,0,0,187.052,175.506Z" transform="translate(-176.311 -167.304)" fill="#eee" fill-rule="evenodd"/>
  </g>
</svg>
