<?xml version="1.0" standalone="no"?>
<!DOCTYPE svg PUBLIC "-//W3C//DTD SVG 1.1//EN" "http://www.w3.org/Graphics/SVG/1.1/DTD/svg11.dtd" >
<svg xmlns="http://www.w3.org/2000/svg" xmlns:xlink="http://www.w3.org/1999/xlink" version="1.1">
<metadata>
Created by FontForge 20170812 at Mon May 16 16:13:28 2022
 By www-data
</metadata>
<defs>
<font id="LosAngelesDeco" horiz-adv-x="280" >
  <font-face 
    font-family="Los Angeles Deco"
    font-weight="400"
    font-stretch="normal"
    units-per-em="1060"
    panose-1="2 0 5 0 0 0 0 0 0 0"
    ascent="848"
    descent="-212"
    x-height="250"
    cap-height="700"
    bbox="-28 -303.083 991 823"
    underline-thickness="50"
    underline-position="-100"
    unicode-range="U+0020-2212"
  />
<missing-glyph horiz-adv-x="191" 
 />
    <glyph glyph-name=".notdef" horiz-adv-x="191" 
 />
    <glyph glyph-name="exclam" unicode="!" horiz-adv-x="120" 
d="M93 709l-5 -557h-52l-5 557h62zM64 -3q-14 0 -24 10t-10 24t10 24q10 9 24 9t24 -10q9 -11 9 -23q0 -14 -9 -24q-10 -10 -24 -10z" />
    <glyph glyph-name="quotedbl" unicode="&#x22;" horiz-adv-x="240" 
d="M116 709q0 -90 -32 -130h-57q32 47 32 130h57zM220 709q0 -90 -32 -130h-57q32 47 32 130h57z" />
    <glyph glyph-name="numbersign" unicode="#" horiz-adv-x="600" 
 />
    <glyph glyph-name="dollar" unicode="$" horiz-adv-x="235" 
d="M200 212v-51q0 -76 -43 -104v-54h-25v42q-5 -1 -11 -2t-14 -2v-38h-25v37q-16 1 -27.5 3.5t-19.5 6.5v52q16 -9 52 -9q29 0 42 16t13 54h-106l-1 51q0 74 47 104v57h25v-45q15 4 25 4v41h25v-40q9 -1 18.5 -2.5t19.5 -5.5v-52q-18 7 -45 7q-29 0 -42 -15q-15 -17 -15 -55
h107z" />
    <glyph glyph-name="percent" unicode="%" horiz-adv-x="360" 
d="M321 353l-243 -358l-41 29l243 356zM82 357q29 0 49 -21q19 -22 19 -53q0 -34 -19 -54q-19 -22 -49 -22t-49 22q-19 20 -19 54q0 31 19 53q19 21 49 21zM82 315q-23 0 -23 -33t23 -33t23 33t-23 33zM273 167q29 0 49 -21q19 -22 19 -53q0 -34 -19 -54q-19 -22 -49 -22
t-49 22q-19 20 -19 54q0 31 19 53q19 21 49 21zM273 125q-23 0 -23 -33t23 -33t23 33t-23 33z" />
    <glyph glyph-name="ampersand" unicode="&#x26;" horiz-adv-x="260" 
d="M235 70q11 -13 21 -14v-56q-18 0 -53 32q-38 -35 -96 -35q-43 0 -75 26t-32 71q0 34 16 56q14 21 49 53q-24 30 -33 48q-10 17 -10 40q0 34 24 60t64 26q37 0 63 -23q24 -24 24 -63q0 -18 -11 -40q-5 -11 -10 -18t-9 -12t-10.5 -12t-16.5 -17l59 -80q8 14 9 28h52
q-5 -38 -25 -70zM110 324q-14 0 -23 -9q-10 -9 -10 -24q0 -6 1 -9q1 -2 1.5 -5t2.5 -5q3 -6 6 -9q1 -5 9 -12q3 -5 5.5 -8.5t4.5 -6.5q11 11 17.5 19.5t10.5 13.5q6 9 6 22q0 12 -8 23q-7 10 -23 10zM56 94q0 -18 13 -31t38 -13q32 0 60 20q-10 12 -27 34t-42 54
q-42 -38 -42 -64z" />
    <glyph glyph-name="quotesingle" unicode="'" horiz-adv-x="109" 
d="M99 709q0 -90 -32 -130h-57q32 47 32 130h57z" />
    <glyph glyph-name="parenleft" unicode="(" horiz-adv-x="120" 
d="M100 688q-64 -189 -60 -397q5 -209 69 -392l-59 -22q-66 175 -66 415q-2 240 66 417l50 -21v0z" />
    <glyph glyph-name="parenright" unicode=")" horiz-adv-x="120" 
d="M43 709q67 -176 67 -417q-2 -241 -67 -415l-59 22q64 183 69 392q4 208 -60 397z" />
    <glyph glyph-name="comma" unicode="," horiz-adv-x="100" 
d="M89 61q0 -60 -32 -100h-57q32 47 32 100h57z" />
    <glyph glyph-name="hyphenminus" unicode="-" horiz-adv-x="172" 
d="M142 152v-51h-110v51h110z" />
    <glyph glyph-name="period" unicode="." horiz-adv-x="107" 
d="M54 -3q-14 0 -24 10t-10 24t10 24q10 9 24 9t24 -10q9 -11 9 -23q0 -14 -9 -24q-10 -10 -24 -10z" />
    <glyph glyph-name="slash" unicode="/" horiz-adv-x="600" 
 />
    <glyph glyph-name="zero" unicode="0" horiz-adv-x="423" 
d="M212 -5q-81 0 -136 57q-56 56 -56 135t57 135q56 56 135 56t135 -56t56 -135t-56 -135q-56 -57 -135 -57zM212 54q54 0 93 39t39 94q0 54 -39 93t-93 39q-55 0 -94 -39t-39 -93q0 -55 39 -94t94 -39z" />
    <glyph glyph-name="one" unicode="1" horiz-adv-x="165" 
d="M71 0v302l-61 -53v78l61 48h58v-375h-58z" />
    <glyph glyph-name="two" unicode="2" horiz-adv-x="300" 
d="M31 37q94 28 150 81q54 52 54 119q0 33 -23 59q-23 24 -61 24q-32 0 -51 -19q-20 -20 -20 -45q0 -23 13 -39t36 -16v-56q-45 0 -77 32t-32 79q0 48 40 85q39 36 91 36q61 0 103 -42q41 -43 41 -98q0 -59 -30 -105q-30 -47 -70 -75h92v-56l-256 -1v37v0z" />
    <glyph glyph-name="three" unicode="3" horiz-adv-x="260" 
d="M180 230q35 -12 53 -42q17 -31 17 -69q0 -72 -46 -139t-108 -103h-96q75 42 133 105q59 65 59 137q0 34 -20 57q-21 22 -59 22h-12v52h12q14 0 25 11q10 10 10 24q0 16 -10 26t-25 10t-25 -10q-11 -11 -11 -26h-57q0 38 28 66q27 27 65 27t65 -27q27 -29 27 -66
q0 -33 -25 -55z" />
    <glyph glyph-name="four" unicode="4" horiz-adv-x="240" 
d="M222 250q1 -250 0 -250h-61v99h-146v63l110 213h67l-117 -221h86v96h61v0z" />
    <glyph glyph-name="five" unicode="5" horiz-adv-x="305" 
d="M70 126q0 -31 22 -52q22 -22 53 -22q38 0 59 26q21 25 21 62q0 39 -23 64q-23 23 -57 23h-104v148h186v-55h-125v-36h43q66 0 104 -41q36 -41 36 -103q0 -58 -39 -101q-41 -44 -101 -44q-59 0 -97 38t-38 93h60z" />
    <glyph glyph-name="six" unicode="6" horiz-adv-x="423" 
d="M211 -4q-79 0 -135 56t-56 135q0 157 161 310h86q-98 -82 -135 -143q31 23 79 23q81 0 136 -55q56 -56 56 -135t-56 -135q-58 -56 -136 -56zM211 320q-54 0 -93 -39t-39 -94q0 -54 39 -93t93 -39q55 0 94 39t39 93q0 55 -39 94t-94 39z" />
    <glyph glyph-name="seven" unicode="7" horiz-adv-x="226" 
d="M42 0q17 167 116 320h-142v55h200v-59q-63 -110 -83 -166q-26 -72 -31 -150h-60z" />
    <glyph glyph-name="eight" unicode="8" horiz-adv-x="329" 
d="M232 264q35 -18 56 -51t21 -74q0 -59 -42 -101q-44 -42 -102 -42q-60 0 -102 42q-43 42 -43 101q0 41 21 74t56 51q-11 17 -11 37q0 31 24 54q22 22 55 22q32 0 55 -22q23 -23 23 -54q0 -20 -11 -37zM140 301q0 -11 7 -17q7 -7 18 -7t18 7q6 6 6 17q0 10 -6 18
q-8 6 -18 6q-11 0 -18 -6q-7 -7 -7 -18zM165 51q35 0 61 26q25 25 25 62q0 38 -25 63t-61 25q-37 0 -62 -25q-26 -26 -26 -63q0 -36 26 -62t62 -26z" />
    <glyph glyph-name="nine" unicode="9" horiz-adv-x="423" 
d="M212 377q79 0 135 -56t56 -135q0 -157 -161 -310h-86q98 82 135 143q-31 -23 -79 -23q-80 0 -136 56t-56 134q0 79 57 135q56 56 135 56zM212 53q54 0 93 39t39 94q0 54 -39 93t-93 39q-55 0 -94 -39t-39 -93q0 -55 39 -94t94 -39z" />
    <glyph glyph-name="colon" unicode=":" horiz-adv-x="127" 
d="M64 136q-14 0 -24 10t-10 24t10 24q10 9 24 9q13 0 24 -9q9 -11 9 -24q0 -14 -9 -24q-10 -10 -24 -10zM64 -3q-14 0 -24 10t-10 24t10 24q10 9 24 9t24 -10q9 -11 9 -23q0 -14 -9 -24q-10 -10 -24 -10z" />
    <glyph glyph-name="semicolon" unicode=";" horiz-adv-x="120" 
d="M64 138q-14 0 -24 10t-10 24t10 24q10 9 24 9q13 0 24 -9q9 -11 9 -24q0 -14 -9 -24q-10 -10 -24 -10zM99 61q0 -60 -32 -100h-57q32 47 32 100h57z" />
    <glyph glyph-name="question" unicode="?" horiz-adv-x="237" 
d="M7 152q0 35 15 70q7 17 15.5 33t19.5 31t21 30t21 31q22 33 36 71q14 42 14 82q0 71 -26 114q-27 41 -68 41q-25 0 -55 -14v61q30 10 55 10q52 0 90 -36q38 -38 51 -83q14 -48 14 -93q0 -64 -22 -118t-49 -89q-14 -17 -26 -34.5t-23 -36.5q-23 -38 -23 -70h-60zM38 -3
q-14 0 -24 10t-10 24t10 24q10 9 24 9t24 -10q9 -11 9 -23q0 -14 -9 -24q-10 -10 -24 -10z" />
    <glyph glyph-name="at" unicode="@" horiz-adv-x="385" 
d="M195 -38q-76 0 -123 47t-47 117q0 73 49 118t121 45q69 0 117 -48t48 -115q0 -44 -12 -68q-14 -24 -48 -24q-28 0 -40 27q-29 -27 -65 -27q-38 0 -65 27q-27 25 -27 65q0 39 27 65q28 26 65 26q41 0 65 -26q23 -26 23 -65q0 -33 4 -42q3 -11 14 -11q8 0 12 4q5 5 6 13
q1 5 1 8.5t1 7.5v20q0 57 -37 91q-38 35 -89 35q-54 0 -92 -35q-38 -36 -38 -91q0 -51 36 -88q36 -38 93 -38q42 0 70 20l29 -24q-46 -34 -98 -34zM195 73q23 0 36 16q13 14 13 37q0 22 -13 36q-14 15 -36 15q-23 0 -36 -15q-14 -16 -14 -36q0 -21 14 -37q13 -16 36 -16z
" />
    <glyph glyph-name="A" unicode="A" 
d="M140 705q53 0 77 -37q23 -38 23 -91v-700h-60v221h-80v-221h-60v221h-40l27 54h13v425q0 53 24 91q22 37 76 37zM180 152v425q0 74 -40 74t-40 -74v-425h80z" />
    <glyph glyph-name="B" unicode="B" horiz-adv-x="270" 
d="M165 147q75 -29 75 -132q0 -52 -32 -95q-31 -43 -77 -43h-91v222h-40l27 54h13v557q72 -28 118 -88q44 -59 61 -122q16 -61 16 -133q0 -58 -18 -119q-19 -61 -52 -101zM100 153q46 49 61 97t14 117q0 89 -22 152q-22 62 -53 89v-455zM121 -66q27 0 44 23q15 22 15 57
q0 86 -59 86h-21v-166h21v0z" />
    <glyph glyph-name="C" unicode="C" horiz-adv-x="450" 
d="M448 -129q-180 0 -301 113q-120 112 -120 304q0 129 57 227q57 96 152 144q96 47 212 47v-58q-153 0 -255 -99q-103 -99 -103 -262q0 -166 102 -262q100 -96 256 -96v-58v0z" />
    <glyph glyph-name="D" unicode="D" horiz-adv-x="276" 
d="M251 289q0 -64 -10 -123q-5 -31 -13 -62t-19 -63q-23 -64 -66 -110q-44 -47 -103 -64v843q59 -17 103 -64q43 -46 66 -109q11 -32 19 -62.5t13 -61.5t7.5 -62t2.5 -62zM191 289q0 95 -27 193q-27 97 -64 124v-635q37 26 64 125q27 97 27 193z" />
    <glyph glyph-name="E" unicode="E" horiz-adv-x="200" 
d="M100 646v-494h80v-52h-80v-170h80v-53h-140v222h-40l27 53h13v548h140v-54h-80z" />
    <glyph glyph-name="F" unicode="F" horiz-adv-x="190" 
d="M100 646v-494h80v-53h-80v-222h-60v823h140v-54h-80z" />
    <glyph glyph-name="G" unicode="G" horiz-adv-x="290" 
d="M239 -133q-119 45 -169 147q-50 103 -50 274q0 128 48 241q49 114 157 181v-72q-71 -59 -108 -152t-37 -198q0 -109 20 -187q19 -76 85 -140v421h60z" />
    <glyph glyph-name="H" unicode="H" horiz-adv-x="300" 
d="M240 700v-823h-60v222h-80v-222h-60v222h-40l27 53h13v548h60v-548h80v548h60z" />
    <glyph glyph-name="I" unicode="I" horiz-adv-x="158" 
d="M107 -123h-60v823h60v-823z" />
    <glyph glyph-name="J" unicode="J" horiz-adv-x="220" 
d="M36 -59q52 30 65 93q9 37 9 163v445h-80v58h140v-505v-19v-51q0 -8 -0.5 -19.5t-1.5 -27.5q-3 -30 -8 -49q-2 -8 -5.5 -18.5t-8.5 -23.5q-11 -26 -24 -42q-15 -18 -36 -35q-11 -10 -23.5 -18t-26.5 -15v64z" />
    <glyph glyph-name="K" unicode="K" horiz-adv-x="270" 
d="M254 700q-2 -14 -14 -79.5t-33 -182.5t-33.5 -188.5t-16.5 -99.5q43 -4 63 -35t20 -65v-173h-60v172q0 18 -11 35q-12 15 -38 15h-31v-222h-60v222h-40l27 53h13v548h60v-551h2q10 51 32.5 188t59.5 363h60z" />
    <glyph glyph-name="L" unicode="L" horiz-adv-x="180" 
d="M100 -70h80v-53h-140v822h60v-769z" />
    <glyph glyph-name="M" unicode="M" horiz-adv-x="330" 
d="M279 710v-833h-60v720l-59 -54l-60 54v-720h-60v833l120 -93z" />
    <glyph glyph-name="N" unicode="N" horiz-adv-x="300" 
d="M240 700v-823h-60v676l-80 54v-730h-60v833l140 -93v83h60z" />
    <glyph glyph-name="O" unicode="O" horiz-adv-x="850" 
d="M423 -133q-175 0 -298 123t-123 298q0 174 123 297t298 123q174 0 297 -123t123 -297q0 -175 -123 -298t-297 -123zM422 -72q148 0 253 105t105 254q0 148 -105 255q-105 105 -253 105q-149 0 -252 -105q-105 -107 -105 -255q0 -149 105 -254q103 -105 252 -105z" />
    <glyph glyph-name="P" unicode="P" horiz-adv-x="270" 
d="M40 -123v833q108 -43 160 -130q51 -89 51 -199q0 -83 -41 -165q-40 -79 -110 -139v-200h-60zM100 153q93 90 91 228q0 85 -28 141q-29 58 -63 86v-455z" />
    <glyph glyph-name="Q" unicode="Q" horiz-adv-x="850" 
d="M843 288q0 -165 -109 -283l78 -97l-46 -38l-76 93q-116 -96 -267 -96q-175 0 -298 123t-123 298q0 174 123 297t298 123q174 0 297 -123t123 -297zM422 -72q129 0 229 83l-151 187l46 39l148 -183q86 101 86 233q0 148 -105 255q-105 105 -253 105q-149 0 -252 -105
q-105 -107 -105 -255q0 -149 105 -254q103 -105 252 -105z" />
    <glyph glyph-name="R" unicode="R" 
d="M190 -123q-10 27 -10 80v93q0 18 -11 35q-12 15 -38 15h-31v-223h-60v222h-40l27 54h13v557q106 -42 155 -138q50 -98 50 -205q0 -56 -22 -116t-58 -104q75 -17 75 -96v-91q0 -62 10 -83h-60v0zM100 153q47 50 67 100q19 48 18 114q0 85 -26 151q-27 64 -59 90v-455z" />
    <glyph glyph-name="S" unicode="S" horiz-adv-x="270" 
d="M78 -128q-49 0 -78 10v60q33 -12 78 -12q53 0 83 49t30 125q0 52 -19 99q-10 25 -21.5 47.5t-25.5 44.5q-14 20 -27 41t-27 41t-25.5 41.5t-21.5 44.5q-20 49 -20 90q0 69 35 110q34 39 91 39q46 0 79 -15v-61q-35 18 -79 18q-64 0 -64 -93q0 -33 20 -71q10 -20 21 -39
t25 -38q14 -20 27.5 -40t27.5 -41q28 -42 47 -100q19 -56 19 -118q0 -96 -44 -164t-131 -68z" />
    <glyph glyph-name="T" unicode="T" horiz-adv-x="190" 
d="M120 646v-769h-60v769h-80v54h220v-54h-80z" />
    <glyph glyph-name="U" unicode="U" horiz-adv-x="300" 
d="M240 0q0 -53 -23 -91q-24 -37 -77 -37q-54 0 -76 37q-24 37 -24 91v700h60v-700q0 -74 40 -74t40 74v700h60v-700z" />
    <glyph glyph-name="V" unicode="V" horiz-adv-x="290" 
d="M100 700v-721q75 85 75 218v503h60v-505q0 -242 -195 -318l-1 823h61z" />
    <glyph glyph-name="W" unicode="W" horiz-adv-x="320" 
d="M40 -123v833h60v-720l59 54l60 -54v720h60v-833l-120 93z" />
    <glyph glyph-name="X" unicode="X" 
d="M239 169l-55 -43l55 -44v-205l-60 -1v186l-39 29l-40 -30v-184h-60v205l56 44l-56 43v531h60v-510l40 -30l39 29v512l60 -1v-531z" />
    <glyph glyph-name="Y" unicode="Y" 
d="M239 166l-69 -54v-235h-60v234l-70 55v534h60v-513l40 -30l39 29v515l60 -1v-534z" />
    <glyph glyph-name="Z" unicode="Z" horiz-adv-x="220" 
d="M204 700q-1 -4 -7 -43.5t-18 -117.5q-24 -155 -51 -324q-14 -85 -26 -154.5t-23 -125.5h111v-58h-182q6 32 37.5 222.5t89.5 542.5h-108v58h177v0z" />
    <glyph glyph-name="backslash" unicode="\" horiz-adv-x="600" 
 />
    <glyph glyph-name="grave" unicode="`" horiz-adv-x="300" 
d="M152 348l24 -65h-41l-40 65h57z" />
    <glyph glyph-name="a" unicode="a" horiz-adv-x="290" 
d="M257 0h-48v27q-35 -30 -76 -30q-53 0 -90 37q-38 36 -38 91q0 54 38 92q37 37 90 37q45 0 76 -31v28h48v-251zM133 52q32 0 51 22q19 20 19 51q0 30 -19 52q-20 21 -51 21t-50 -21q-20 -23 -20 -52t20 -51q19 -22 50 -22z" />
    <glyph glyph-name="b" unicode="b" horiz-adv-x="310" 
d="M88 709v-485q30 30 69 30q52 0 89 -37t37 -92t-37 -92t-89 -37q-40 0 -69 28v-25h-58v710h58zM154 52q32 0 51 22q20 22 20 51t-20 52q-20 21 -51 21t-50 -21q-20 -23 -20 -52t20 -51q19 -22 50 -22z" />
    <glyph glyph-name="c" unicode="c" horiz-adv-x="210" 
d="M193 12q-26 -15 -58 -15q-53 0 -86 37q-34 35 -34 91q0 54 34 91q33 37 86 37q35 0 58 -14v-54q-25 13 -58 13q-26 0 -44 -20q-18 -21 -18 -53q0 -34 18 -53q18 -20 44 -20q35 0 58 14v-54z" />
    <glyph glyph-name="d" unicode="d" horiz-adv-x="300" 
d="M262 -1h-58v25q-29 -28 -70 -28q-54 0 -88 37q-36 36 -36 92q0 54 36 92q34 37 88 37q40 0 70 -30v485h58v-710zM138 52q32 0 51 22q19 20 19 51q0 30 -19 52q-20 21 -51 21q-32 0 -51 -21q-20 -23 -20 -52t20 -51q19 -22 51 -22z" />
    <glyph glyph-name="f" unicode="f" horiz-adv-x="200" 
d="M149 654q-30 0 -40 -22q-11 -24 -11 -69v-410h85v-54h-85v-99h-58v99h-40l27 54h13v408q0 146 101 146q28 0 52 -12v-56q-18 15 -44 15z" />
    <glyph glyph-name="g" unicode="g" horiz-adv-x="250" 
d="M211 252q-14 0 -24 10t-10 24t10 24q10 9 24 9q12 0 23 -9q10 -10 10 -24t-9 -24q-10 -10 -24 -10zM150 -5q51 -10 87 -52q35 -43 35 -96q0 -61 -44 -105q-43 -43 -106 -45q-62 -2 -106 44q-44 44 -44 106q0 54 35 97q34 41 87 52v62q-33 9 -52 36q-21 25 -21 60
q0 41 30 71q29 29 70 29q40 0 71 -29q29 -31 29 -71q0 -33 -20 -59q-19 -26 -51 -37v-63v0zM78 154q0 -18 13 -31q12 -14 30 -14q17 0 31 14q12 13 12 31q0 17 -12 31q-13 13 -31 13t-30 -13q-13 -13 -13 -31zM122 -249q38 0 65 28t27 68q0 38 -27 67q-27 28 -65 28
q-40 0 -65 -28q-27 -29 -27 -67q0 -40 27 -68q25 -28 65 -28z" />
    <glyph glyph-name="h" unicode="h" 
d="M242 0h-58v148q0 53 -41 53q-21 0 -33 -14q-12 -15 -12 -39v-148h-58v709h58v-481q20 26 59 26q85 0 85 -109v-145z" />
    <glyph glyph-name="i" unicode="i" horiz-adv-x="140" 
d="M70 312q-14 0 -24 10t-10 24t10 24q10 9 24 9q13 0 24 -9q9 -11 9 -24q0 -14 -9 -24q-10 -10 -24 -10zM98 0h-58v250h58v-250z" />
    <glyph glyph-name="j" unicode="j" horiz-adv-x="140" 
d="M70 312q-14 0 -24 10t-10 24t10 24q10 9 24 9q13 0 24 -9q9 -11 9 -24q0 -14 -9 -24q-10 -10 -24 -10zM98 10q0 -93 -98 -140v68q40 16 40 71v241h58v-240z" />
    <glyph glyph-name="k" unicode="k" horiz-adv-x="260" 
d="M163 151q69 -8 69 -101v-50h-58v53q0 46 -41 46h-35v-99h-58v709h58v-557h1l65 98h69l-70 -99v0z" />
    <glyph glyph-name="l" unicode="l" horiz-adv-x="138" 
d="M98 0h-58v700h58v-700z" />
    <glyph glyph-name="m" unicode="m" horiz-adv-x="386" 
d="M254 250q45 0 74 -26q28 -27 28 -79v-145h-58v152q0 50 -57 50h-19v-202h-58v152q0 50 -57 50h-19v-202h-58v250h90q44 0 69 -22v22h65v0z" />
    <glyph glyph-name="n" unicode="n" horiz-adv-x="270" 
d="M232 0h-58v152q0 50 -57 50h-29v-202h-58v250h100q45 0 74 -26q28 -27 28 -79v-145z" />
    <glyph glyph-name="o" unicode="o" horiz-adv-x="290" 
d="M145 -6q-54 0 -92 38t-38 92q0 52 38 92q38 38 92 38q52 0 92 -38q38 -40 38 -92q0 -54 -38 -92q-40 -38 -92 -38zM145 49q30 0 51 22t21 53q0 29 -21 52q-21 22 -51 22t-51 -22q-22 -23 -21 -52q0 -31 21 -53t51 -22z" />
    <glyph glyph-name="p" unicode="p" horiz-adv-x="320" 
d="M40 250h58v-23q29 26 69 26q52 0 90 -36q36 -38 36 -93t-36 -92q-37 -37 -90 -37q-19 0 -40 9q-21 7 -29 19v-146h-58v373zM165 197q-31 0 -51 -20q-20 -22 -20 -53q0 -33 20 -53t51 -20t50 22q19 20 19 51q0 30 -19 52q-20 21 -50 21z" />
    <glyph glyph-name="q" unicode="q" horiz-adv-x="300" 
d="M200 -123v146q-8 -12 -29 -19q-21 -9 -40 -9q-53 0 -89 37q-37 37 -37 92q0 56 37 93q36 36 89 36q40 0 69 -26v23h58v-373h-58zM133 197q-31 0 -50 -21q-19 -22 -19 -52q0 -31 19 -51q19 -22 50 -22q32 0 52 20q19 19 19 53q0 33 -19 53q-20 20 -52 20z" />
    <glyph glyph-name="r" unicode="r" horiz-adv-x="195" 
d="M182 194q-15 7 -39 7q-21 0 -33 -14q-12 -15 -12 -39v-148h-58v250h58v-22q20 26 59 26q11 0 25 -3v-57z" />
    <glyph glyph-name="s" unicode="s" horiz-adv-x="210" 
d="M25 152q0 42 30 72q29 29 80 29q21 0 50 -8v-52q-17 7 -45 7q-22 0 -39 -14q-18 -15 -18 -36h107v-51q0 -43 -26 -72q-27 -29 -84 -29q-36 0 -55 10v52q16 -9 52 -9q22 0 39 15q16 13 16 35h-106z" />
    <glyph glyph-name="t" unicode="t" horiz-adv-x="200" 
d="M98 196v-82q0 -33 11 -47t40 -14q20 0 34 8v-56q-12 -5 -42 -5q-101 0 -101 116v80h-40l40 54l58 76v-76h85v-54h-85z" />
    <glyph glyph-name="u" unicode="u" 
d="M40 254h58v-148q0 -53 41 -53q21 0 33 15q12 13 12 38v148h58v-250h-58v22q-20 -26 -59 -26q-85 0 -85 109v145z" />
    <glyph glyph-name="v" unicode="v" horiz-adv-x="250" 
d="M107 0q-87 93 -87 250h60q0 -128 51 -182l59 182h60l-85 -250h-58z" />
    <glyph glyph-name="w" unicode="w" horiz-adv-x="395" 
d="M389 250q0 -157 -87 -250h-58l-47 146l-47 -146h-58q-87 93 -87 250h60q0 -128 51 -182l59 182h44q26 -80 40.5 -125.5t18.5 -56.5q51 54 51 182h60z" />
    <glyph glyph-name="x" unicode="x" horiz-adv-x="255" 
d="M181 0l-56 91l-53 -91h-66l82 127l-81 123h65l52 -87l53 87h65l-79 -124l83 -126h-65z" />
    <glyph glyph-name="y" unicode="y" horiz-adv-x="245" 
d="M44 -123l53 123q-87 93 -87 250h60q0 -128 51 -182l59 182h65l-135 -373h-66z" />
    <glyph glyph-name="z" unicode="z" horiz-adv-x="260" 
d="M108 53h122v-53h-224l135 197h-125v53h226z" />
    <glyph glyph-name="copyright" unicode="&#xa9;" horiz-adv-x="600" 
 />
    <glyph glyph-name="endash" unicode="&#x2013;" horiz-adv-x="200" 
d="M180 152v-51h-160v51h160z" />
    <glyph glyph-name="emdash" unicode="&#x2014;" 
d="M260 152v-51h-240v51h240z" />
    <glyph glyph-name="quoteleft" unicode="&#x2018;" horiz-adv-x="126" 
d="M116 709q-32 -47 -32 -130h-57q0 90 32 130h57z" />
    <glyph glyph-name="quotedblleft" unicode="&#x201c;" horiz-adv-x="223" 
d="M116 709q-32 -47 -32 -130h-57q0 90 32 130h57zM204 709q-32 -47 -32 -130h-57q0 90 32 130h57z" />
    <glyph glyph-name="quotedblright" unicode="&#x201d;" horiz-adv-x="230" 
d="M116 709q0 -90 -32 -130h-57q32 47 32 130h57zM220 709q0 -90 -32 -130h-57q32 47 32 130h57z" />
    <glyph glyph-name="quotedblbase" unicode="&#x201e;" horiz-adv-x="100" 
d="M89 61q0 -60 -32 -100h-57q32 47 32 100h57z" />
    <glyph glyph-name="euro" unicode="&#x20ac;" horiz-adv-x="225" 
d="M155 282q-59 0 -69 -70h76v-28h-79v-6q0 -20 1 -25h78v-29h-75q13 -66 68 -66q37 0 65 19v-56q-34 -19 -65 -19q-50 0 -81 34q-34 35 -44 88h-38l15 29h19q-1 4 -1 10.5v14.5v6h-33l15 28h20q9 57 42 91q33 35 86 35q34 0 65 -19v-55q-29 18 -65 18z" />
    <glyph glyph-name="minus" unicode="&#x2212;" horiz-adv-x="150" 
d="M140 152v-51h-130v51h130z" />
    <glyph glyph-name="O.alt" horiz-adv-x="300" 
d="M35 544q0 164 118 164q58 0 88 -37q30 -38 30 -127v-256v-255q0 -89 -30 -126q-30 -38 -88 -38q-118 0 -118 164v255v256zM203 544q0 57 -12 80t-39 23q-28 0 -39 -23q-12 -23 -12 -80v-256v-256q0 -58 12 -80q11 -23 39 -23q27 0 39 23q12 22 12 80v256v256z" />
    <glyph glyph-name="L_S.dlig" horiz-adv-x="420" 
d="M216 551q0 -33 20 -71q10 -20 21.5 -39t25.5 -38q27 -39 54 -81q14 -22 25.5 -46.5t21.5 -53.5q19 -57 19 -118q0 -95 -48 -161t-147 -66h-168v832h60v-779h108q62 0 98 49q35 50 35 125q0 51 -19 99q-19 49 -47 92q-14 20 -27 41t-27 41t-25.5 41.5t-21.5 44.5
q-20 48 -20 90q0 70 35 110q34 39 91 39q46 0 79 -15v-61q-35 18 -79 18q-64 0 -64 -93z" />
    <glyph glyph-name="afii10017" unicode="&#x410;" 
d="M140 705q53 0 77 -37q23 -38 23 -91v-700h-60v221h-80v-221h-60v221h-40l27 54h13v425q0 53 24 91q22 37 76 37zM180 152v425q0 74 -40 74t-40 -74v-425h80z" />
    <glyph glyph-name="afii10019" unicode="&#x412;" horiz-adv-x="270" 
d="M165 147q75 -29 75 -132q0 -51 -32 -95q-31 -43 -77 -43h-91v222h-40l27 54h13v557q72 -28 118 -88q45 -60 61 -122q16 -60 16 -133q0 -58 -18 -119q-19 -61 -52 -101zM100 153q46 49 61 97q15 49 14 117q0 90 -22 152q-23 63 -53 89v-455zM121 -66q27 0 44 23
q15 22 15 57q0 86 -59 86h-21v-166h21z" />
    <glyph glyph-name="afii10020" unicode="&#x413;" horiz-adv-x="190" 
d="M100 646v-769h-60v823h140v-54h-80z" />
    <glyph glyph-name="afii10022" unicode="&#x415;" horiz-adv-x="200" 
d="M100 646v-494h80v-52h-80v-170h80v-53h-140v222h-40l27 53h13v548h140v-54h-80z" />
    <glyph glyph-name="afii10028" unicode="&#x41a;" horiz-adv-x="270" 
d="M254 700q-2 -14 -14 -79.5t-33 -182.5t-33.5 -188.5t-16.5 -99.5q43 -4 63 -35t20 -65v-173h-60v172q0 18 -11 35q-12 15 -38 15h-31v-222h-60v222h-40l27 53h13v548h60v-551h2q10 51 32.5 188t59.5 363h60z" />
    <glyph glyph-name="afii10024" unicode="&#x416;" horiz-adv-x="402" 
d="M172 99h-31q-26 0 -38 -15q-11 -17 -11 -35v-172h-60v173q0 33 20 65q19 30 63 35q-4 28 -16.5 99t-33.5 189t-33 183t-14 79h60q37 -227 59.5 -363.5t32.5 -187.5h2v551h60v-551h2q10 51 32.5 187.5t59.5 363.5h60q-2 -14 -14 -79t-33 -183t-33.5 -189t-16.5 -99
q44 -5 63 -35q20 -32 20 -65v-173h-60v172q0 18 -11 35q-12 15 -38 15h-31v-222h-60v222z" />
    <glyph glyph-name="afii10030" unicode="&#x41c;" horiz-adv-x="330" 
d="M279 710v-833h-60v720l-59 -54l-60 54v-720h-60v833l120 -93z" />
    <glyph glyph-name="afii10031" unicode="&#x41d;" horiz-adv-x="300" 
d="M250 700v-823h-60v222h-80v-222h-60v222h-40l27 53h13v548h60v-548h80v548h60z" />
    <glyph glyph-name="afii10032" unicode="&#x41e;" horiz-adv-x="850" 
d="M423 -133q-175 0 -298 123t-123 298q0 174 123 297t298 123q174 0 297 -123t123 -297q0 -175 -123 -298t-297 -123zM422 -72q148 0 253 105t105 254q0 148 -105 255q-105 105 -253 105q-149 0 -252 -105q-105 -107 -105 -255q0 -149 105 -254q103 -105 252 -105z" />
    <glyph glyph-name="afii10033" unicode="&#x41f;" 
d="M236 700v-823h-60l1 770h-80l-1 -770h-60v823h200z" />
    <glyph glyph-name="afii10034" unicode="&#x420;" horiz-adv-x="270" 
d="M40 -123v833q108 -43 160 -130q51 -89 51 -199q0 -83 -41 -165q-40 -79 -110 -139v-200h-60zM100 153q93 90 91 228q0 85 -28 141q-29 58 -63 86v-455z" />
    <glyph glyph-name="afii10035" unicode="&#x421;" horiz-adv-x="450" 
d="M448 -129q-180 0 -301 113q-120 112 -120 304q0 129 57 227q57 96 152 144q96 47 212 47v-58q-153 0 -255 -99q-103 -99 -103 -262q0 -166 102 -262q100 -96 256 -96v-58z" />
    <glyph glyph-name="afii10036" unicode="&#x422;" horiz-adv-x="261" 
d="M160 646v-769h-60v769h-80v54h220v-54h-80z" />
    <glyph glyph-name="afii10039" unicode="&#x425;" 
d="M239 169l-55 -43l55 -44v-205l-60 -1v186l-39 29l-40 -30v-184h-60v205l56 44l-56 43v531h60v-510l40 -30l39 29v512l60 -1v-531z" />
    <glyph glyph-name="afii10018" unicode="&#x411;" horiz-adv-x="270" 
d="M100 649v-140q70 -60 110 -139q41 -82 41 -165q0 -110 -51 -199q-52 -87 -160 -130v827h171v-54h-111zM100 -22q34 28 63 86q28 56 28 141q2 138 -91 228v-455z" />
    <glyph glyph-name="afii10047" unicode="&#x42d;" horiz-adv-x="298" 
d="M221 99q-23 -82 -70.5 -142.5t-125.5 -89.5l-2 58q54 26 87 70.5t50 103.5h-95l27 53h81q5 32 8 66t3 70q0 106 -37 198q-38 94 -108 152v72q108 -67 157 -181q48 -113 48 -241q0 -73 -12 -136h55v-52z" />
    <glyph glyph-name="afii10021" unicode="&#x414;" horiz-adv-x="312" 
d="M111 -68h91l1 716h-31zM252 -125l-190 2v-80h-53v138l43 -1l61 714h-53l27 53l175 -1v-768h43v-138h-53v81z" />
    <glyph glyph-name="afii10026" unicode="&#x418;" horiz-adv-x="282" 
d="M180 700h60v-823h-60v480l-80 -404v-76h-60v823h60v-508l80 403v105z" />
    <glyph glyph-name="afii10027" unicode="&#x419;" horiz-adv-x="282" 
d="M180 700h60v-823h-60v480l-80 -404v-76h-60v823h60v-508l80 403v105zM144 789q13 0 22 8.5t9 22.5v3h48v-3q0 -35 -22.5 -57t-56.5 -22t-56.5 22t-22.5 57v3h48v-3q0 -14 9 -22.5t22 -8.5z" />
    <glyph glyph-name="afii10108" unicode="&#x45b;" 
d="M44 -124v57h96q33 1 45 25.5t12 55.5q0 43 -16 62.5t-45 19.5h-90l25 57h61q21 0 33.5 18.5t12.5 39.5v382q0 23 -13.5 36t-33.5 13h7q-27 0 -40 -16.5t-13 -32.5v-141h-56v133q0 52 29.5 85t84.5 33h-11q27 -2 46.5 -12t32.5 -27t19.5 -39t7.5 -46v-356q1 -28 -8 -51.5
t-26 -40.5q16 -5 32.5 -34.5t16.5 -81.5q0 -22 -6.5 -46.5t-19 -45t-31 -34t-43.5 -12.5z" />
    <glyph glyph-name="afii10025" unicode="&#x417;" 
d="M31 698q54 9 92.5 -8.5t59.5 -50.5q18 -26 26 -61.5t4.5 -72t-18.5 -70.5t-42 -58q57 -42 80.5 -96t23.5 -120q0 -45 -14.5 -93.5t-42 -89.5t-67 -69.5t-90.5 -33.5l-20 53q43 5 75.5 27.5t55 55t34 71t11.5 75.5q0 31 -7 63t-21.5 58.5t-37 45t-52.5 21.5
q-4 0 -12.5 0.5t-18 0.5h-18.5h-13l16 52q11 -1 26.5 0.5t23.5 3.5q32 9 49 33t22.5 54t1 61t-15.5 54q-16 29 -48 39.5t-70 0.5z" />
    <glyph glyph-name="afii10029" unicode="&#x41b;" horiz-adv-x="331" 
d="M55 -126q-17 2 -27 8l25 67q9 -2 20.5 10t15.5 52l52 637h-53l27 53l172 -1v-823h-60l1 771h-31l-53 -621q-7 -81 -31 -118t-58 -35z" />
    <glyph glyph-name="afii10048" unicode="&#x42e;" horiz-adv-x="1017" 
d="M571 -133q-175 0 -298 123q-50 49 -80 108l-93 1v-222h-60v222h-40l27 53h13v548h60v-548l71 -1q-21 64 -21 137q0 174 123 297t298 123q174 0 297 -123t123 -297q0 -175 -123 -298t-297 -123zM570 -72q148 0 253 105t105 254q0 148 -105 255q-105 105 -253 105
q-149 0 -252 -105q-105 -107 -105 -255q0 -149 105 -254q103 -105 252 -105z" />
    <glyph glyph-name="afii10049" unicode="&#x42f;" horiz-adv-x="267" 
d="M19 -123q10 21 10 83v91q0 79 75 96q-36 44 -58 104t-22 116q0 107 50 205q49 96 155 138v-833h-60v223h-31q-26 0 -38 -15q-11 -17 -11 -35v-93q0 -53 -10 -80h-60zM169 608q-32 -26 -59 -90q-26 -66 -26 -151q-1 -66 18 -114q20 -50 67 -100v455z" />
    <glyph glyph-name="afii10037" unicode="&#x423;" horiz-adv-x="274" 
d="M233 -4q-2 -48 -23.5 -83.5t-73.5 -39.5q-51 2 -76 34.5t-25 82.5v60h56v-68q0 -16 9 -32.5t36 -16.5q36 3 36 49v115h-79l-59 57v546h60v-516l29 -31h49l1 548l60 -1v-704zM136 -127q-1 0 -1.5 -0.5t-1.5 -0.5h5q-1 0 -1 0.5t-1 0.5z" />
    <glyph glyph-name="afii10038" unicode="&#x424;" horiz-adv-x="452" 
d="M256 -123h-60v65q-47 12 -82.5 45.5t-58.5 81.5t-34.5 106t-11 118t12.5 118t35.5 106t58 82.5t80.5 46.5v54h60v-56q45 -13 79 -47.5t57 -82t34.5 -105t12 -117t-10.5 -117t-34 -105t-57.5 -81t-80.5 -46.5v-66zM73 305q-1 -51 6 -100t22.5 -89.5t39 -69t55.5 -37.5v565
l-2 2q-29 -12 -51 -38.5t-37 -62.5t-23.5 -80t-9.5 -90zM374 305q-1 46 -9 89.5t-23 79.5t-36.5 62.5t-49.5 38.5v-564q30 10 53 38.5t37.5 68.5t21.5 88.5t6 98.5z" />
    <glyph glyph-name="afii10040" unicode="&#x426;" horiz-adv-x="303" 
d="M226 -125l-190 1v823h60l1 -770h80l-1 770h60v-768h43v-138h-53v82z" />
    <glyph glyph-name="afii10041" unicode="&#x427;" horiz-adv-x="274" 
d="M172 -126v230q-8 -3 -17.5 -5.5t-20.5 -2.5q-54 0 -76 37q-24 37 -24 91v476h60v-476q0 -74 40 -74q16 0 25 5t13 28l1 518l60 -1v-827z" />
    <glyph glyph-name="afii10043" unicode="&#x429;" horiz-adv-x="448" 
d="M41 -124l1 823h60v-770h80v770h59l1 -770h80l-1 770h60v-768h43v-138h-53v82z" />
    <glyph glyph-name="afii10042" unicode="&#x428;" horiz-adv-x="425" 
d="M41 -124l1 823h60v-770h80v770h59l1 -770h80l-1 770h60v-824z" />
    <glyph glyph-name="afii10044" unicode="&#x42a;" horiz-adv-x="356" 
d="M39 649v54h147v-194q70 -60 110 -139q41 -82 41 -165q0 -110 -51 -199q-52 -87 -160 -130v773h-87zM186 -22q34 28 63 86q28 56 28 141q2 138 -91 228v-455z" />
    <glyph glyph-name="afii10046" unicode="&#x42c;" horiz-adv-x="270" 
d="M100 703v-194q70 -60 110 -139q41 -82 41 -165q0 -110 -51 -199q-52 -87 -160 -130v827h60zM100 -22q34 28 63 86q28 56 28 141q2 138 -91 228v-455z" />
    <glyph glyph-name="afii10045" unicode="&#x42b;" horiz-adv-x="387" 
d="M100 701v-192q70 -60 110 -139q41 -82 41 -165q0 -110 -51 -199q-52 -87 -160 -130v825h60zM100 -22q34 28 63 86q28 56 28 141q2 138 -91 228v-455zM350 -125h-60v826h60v-826z" />
    <glyph glyph-name="afii10065" unicode="&#x430;" horiz-adv-x="290" 
d="M257 0h-48v27q-35 -30 -76 -30q-53 0 -90 37q-38 36 -38 91q0 54 38 92q37 37 90 37q45 0 76 -31v28h48v-251zM133 52q32 0 51 22q19 20 19 51q0 30 -19 52q-20 21 -51 21t-50 -21q-20 -23 -20 -52t20 -51q19 -22 50 -22z" />
    <glyph glyph-name="afii10066" unicode="&#x431;" horiz-adv-x="290" 
d="M145 -6q-31 0 -55 12t-40.5 33t-26 48t-12.5 57q-5 51 -2.5 95.5t15.5 83t39 71.5t68 62q27 18 56 33.5t54 32.5v-68q-20 -16 -43 -28.5t-45 -26.5q-53 -32 -75 -75.5t-19 -116.5q17 21 40 32.5t47 13t48 -7.5t43 -29q38 -41 38 -92q0 -54 -38 -92q-41 -38 -92 -38z
M145 49q30 0 51 22t21 53q0 29 -21 52q-21 22 -51 22q-15 0 -28.5 -6t-23.5 -16.5t-16 -24t-5 -27.5q0 -30 22 -53q21 -22 51 -22z" />
    <glyph glyph-name="afii10067" unicode="&#x432;" horiz-adv-x="260" 
d="M31 0v252h95q42 0 67 -12.5t30 -32.5q2 -8 1.5 -19t-5 -21t-13 -17.5t-22.5 -10.5q21 -2 39 -17.5t17 -47.5q-1 -35 -26 -54.5t-82 -19.5h-101zM90 51l35 -1q19 0 30.5 2.5t17.5 6.5t7.5 9.5t1.5 11.5q0 11 -9 19t-48 8h-35v-56zM122 154q22 0 33 7.5t11.5 17.5t-9 18
t-27.5 8h-40v-51h32z" />
    <glyph glyph-name="afii10070" unicode="&#x435;" horiz-adv-x="271" 
d="M82 101q4 -17 16 -29q9 -10 22 -15t26 -5q35 0 58 14v-54q-26 -15 -58 -15q-53 0 -86 37q-34 34 -34 91q0 54 34 91q16 18 38 27t45 9q43 0 73 -28.5t30 -71.5v-51h-164zM144 198q-23 0 -39.5 -14t-21.5 -34h109q1 15 -13 31.5t-35 16.5z" />
    <glyph glyph-name="afii10068" unicode="&#x433;" horiz-adv-x="208" 
d="M87 196v-196h-58v250h154v-54h-96z" />
    <glyph glyph-name="afii10069" unicode="&#x434;" horiz-adv-x="293" 
d="M107 51h78v146h-37zM232 -1l-169 2v-67h-51v118l41 1l41 144h-44l24 53l168 -1v-198h42v-120h-52v68z" />
    <glyph glyph-name="afii10076" unicode="&#x43a;" horiz-adv-x="252" 
d="M155 151q69 -8 69 -101v-50h-58v53q0 46 -41 46h-35v-99h-58v246h58v-94h1l65 98h69z" />
    <glyph glyph-name="afii10072" unicode="&#x436;" horiz-adv-x="376" 
d="M156 99h-35q-41 0 -41 -46v-53h-58v50q0 93 69 101l-70 99h69l65 -98h1v94h58v-94h1l65 98h69l-70 -99q69 -8 69 -101v-50h-58v53q0 46 -41 46h-35v-99h-58v99z" />
    <glyph glyph-name="afii10073" unicode="&#x437;" horiz-adv-x="254" 
d="M76 106l16 45h37q6 0 12 2t9 7q10 19 2 31t-22.5 14.5t-28 -5t-13.5 -26.5h-62q-2 16 5.5 30t21 24.5t31 17t36.5 7.5q23 1 44.5 -5.5t35.5 -20.5q10 -10 15 -23t4.5 -26.5t-8.5 -25.5t-25 -20q30 -13 37 -34.5t1 -41.5q-9 -25 -38 -43t-77 -17q-19 0 -36.5 7.5t-31 20
t-21.5 28t-6 31.5h58q-1 -12 9.5 -22t25.5 -12q23 -3 38 6t19 21q4 11 -3.5 19.5t-30.5 10.5h-54z" />
    <glyph glyph-name="afii10074" unicode="&#x438;" horiz-adv-x="263" 
d="M88 104l86 146h2l1 1l1 -1h54v-250h-58v150l-86 -150h-58v250h58v-146z" />
    <glyph glyph-name="afii10079" unicode="&#x43d;" horiz-adv-x="263" 
d="M88 157h86v93h58v-250h-58v106h-86v-106h-58v250h58v-93z" />
    <glyph glyph-name="afii10075" unicode="&#x439;" horiz-adv-x="263" 
d="M88 250h-58v-250h58l86 150v-150h58v250h-54l-1 1l-1 -1h-2l-86 -146v146zM136 351q13 0 22 8.5t9 22.5v3h48v-3q0 -35 -22.5 -57t-56.5 -22t-56.5 22t-22.5 57v3h48v-3q0 -14 9 -22.5t22 -8.5z" />
    <glyph glyph-name="afii10080" unicode="&#x43e;" horiz-adv-x="290" 
d="M145 -6q-54 0 -92 38t-38 92q0 52 38 92q38 38 92 38q52 0 92 -38q38 -40 38 -92q0 -54 -38 -92q-40 -38 -92 -38zM145 49q30 0 51 22t21 53q0 29 -21 52q-21 22 -51 22t-51 -22q-22 -23 -21 -52q0 -31 21 -53t51 -22z" />
    <glyph glyph-name="afii10081" unicode="&#x43f;" horiz-adv-x="259" 
d="M232 0h-58v152q0 50 -57 50h-29v-202h-58v250h100q45 0 74 -26q28 -27 28 -79v-145z" />
    <glyph glyph-name="afii10082" unicode="&#x440;" horiz-adv-x="307" 
d="M27 250h58v-23q29 26 69 26q52 0 90 -36q36 -38 36 -93t-36 -92q-37 -37 -90 -37q-19 0 -40 9q-21 7 -29 19v-146h-58v373zM152 197q-31 0 -51 -20q-20 -22 -20 -53q0 -33 20 -53t51 -20t50 22q19 20 19 51q0 30 -19 52q-20 21 -50 21z" />
    <glyph glyph-name="afii10083" unicode="&#x441;" horiz-adv-x="210" 
d="M193 12q-26 -15 -58 -15q-53 0 -86 37q-34 35 -34 91q0 54 34 91q33 37 86 37q35 0 58 -14v-54q-25 13 -58 13q-26 0 -44 -20q-18 -21 -18 -53q0 -34 18 -53q18 -20 44 -20q35 0 58 14v-54z" />
    <glyph glyph-name="afii10084" unicode="&#x442;" horiz-adv-x="246" 
d="M94 197h-76v54l209 -1v-54h-75v-196h-58v197z" />
    <glyph glyph-name="afii10077" unicode="&#x43b;" horiz-adv-x="260" 
d="M173 0v198h-43q-7 -40 -15.5 -84t-22.5 -74q-15 -35 -42 -42t-48 9l21 68q5 -5 14.5 -2t15.5 23q1 3 3.5 9.5t5.5 18t7 29.5l10 45h-39l24 53l166 -1v-250h-57z" />
    <glyph glyph-name="afii10078" unicode="&#x43c;" horiz-adv-x="330" 
d="M294 259v-259h-60v139l-67 -49l-70 49v-139h-60v259l130 -95z" />
    <glyph glyph-name="afii10085" unicode="&#x443;" horiz-adv-x="245" 
d="M44 -123l53 123q-87 93 -87 250h60q0 -128 51 -182l59 182h65l-135 -373h-66z" />
    <glyph glyph-name="afii10086" unicode="&#x444;" horiz-adv-x="499" 
d="M219 23q-7 -11 -29 -19q-21 -9 -40 -9q-53 0 -90 37q-36 37 -36 92t36 93q37 36 90 36q40 0 69 -26v301h58v-301q29 26 69 26q52 0 90 -36q36 -38 36 -93t-36 -92q-37 -37 -90 -37q-19 0 -40 9q-22 8 -29 19v-146h-58v146zM344 197q-31 0 -51 -20q-20 -23 -20 -53
q0 -33 20 -53t51 -20t50 22q19 19 19 51q0 30 -19 52q-20 21 -50 21zM152 197q-31 0 -50 -21q-19 -22 -19 -52q0 -32 19 -51q19 -22 50 -22t51 20t20 53q0 30 -20 53q-20 20 -51 20z" />
    <glyph glyph-name="afii10087" unicode="&#x445;" horiz-adv-x="255" 
d="M181 0l-56 91l-53 -91h-66l82 127l-81 123h65l52 -87l53 87h65l-79 -124l83 -126h-65z" />
    <glyph glyph-name="afii10088" unicode="&#x446;" horiz-adv-x="296" 
d="M221 -1l-191 1v250h58v-199h86v199h58v-200l41 1v-120h-52v68z" />
    <glyph glyph-name="afii10089" unicode="&#x447;" horiz-adv-x="275" 
d="M29 254h58v-57q0 -53 41 -53q21 0 33 15q12 13 12 38v57h58v-250h-58v113q-20 -26 -59 -26q-85 0 -85 109v54z" />
    <glyph glyph-name="afii10091" unicode="&#x449;" horiz-adv-x="439" 
d="M29 0v250h58v-199h86v199h58v-199h86v199h58v-200l41 1v-120h-52v68z" />
    <glyph glyph-name="afii10090" unicode="&#x448;" horiz-adv-x="406" 
d="M29 0v250h58v-199h86v199h58v-199h86v199h58v-251z" />
    <glyph glyph-name="afii10094" unicode="&#x44c;" horiz-adv-x="260" 
d="M240 91q1 -18 -5 -34t-19.5 -29t-34.5 -20.5t-49 -7.5h-101v252h59v-76h51q40 0 68 -20t31 -65zM90 126v-75l42 -1q33 -1 43 12.5t11 27.5q0 19 -13.5 27t-36.5 9h-46z" />
    <glyph glyph-name="afii10097" unicode="&#x44f;" horiz-adv-x="256" 
d="M21 170q-2 35 24.5 57.5t83.5 22.5h101v-250h-59v95h-38l-50 -95h-66l60 100q-23 7 -38.5 23t-17.5 47zM171 201l-42 1q-17 0 -27.5 -2.5t-15.5 -7t-6.5 -10t-1.5 -11.5q0 -10 8.5 -17t38.5 -9h46v56z" />
    <glyph glyph-name="afii10093" unicode="&#x44b;" horiz-adv-x="370" 
d="M240 91q1 -18 -5 -34t-19.5 -29t-34.5 -20.5t-49 -7.5h-101v252h59v-76h51q40 0 68 -20t31 -65zM90 126v-75l42 -1q33 -1 43 12.5t11 27.5q0 19 -13.5 27t-36.5 9h-46zM330 -1h-58v250h58v-250z" />
    <glyph glyph-name="afii10092" unicode="&#x44a;" horiz-adv-x="330" 
d="M31 198v54h129v-72h51q20 0 38.5 -5t32.5 -15.5t22 -27.5t8 -41q-1 -47 -27 -69t-83 -22h-101v198h-70zM160 126v-75l42 -1q16 0 26.5 3.5t16 9t8 13t2.5 14.5q0 19 -13 27t-36 9h-46z" />
    <glyph glyph-name="afii10095" unicode="&#x44d;" horiz-adv-x="245" 
d="M94 198q-37 0 -65 -18v54q31 19 65 19q50 0 81 -20q21 -15 32.5 -42t13.5 -57t-6.5 -59t-27.5 -47q-31 -31 -93 -31q-30 0 -65 20v54q28 -19 65 -19q56 0 69 49h-93l17 49h76q-14 48 -69 48z" />
    <glyph glyph-name="afii10096" unicode="&#x44e;" horiz-adv-x="414" 
d="M88 157h38q8 32 34 59q38 38 92 38q52 0 92 -38q38 -40 38 -92q0 -54 -38 -92q-40 -38 -92 -38q-54 0 -92 38q-32 31 -37 74h-35v-106h-58v250h58v-93zM252 49q30 0 51 22t21 53q0 29 -21 52q-21 22 -51 22t-51 -22q-22 -23 -21 -52q0 -31 21 -53t51 -22z" />
    <glyph glyph-name="uni0406" unicode="&#x406;" horiz-adv-x="158" 
d="M107 -123h-60v823h60v-823z" />
    <glyph glyph-name="afii10056" unicode="&#x407;" horiz-adv-x="150" 
d="M21 730q-14 0 -24 10t-10 24t10 24q10 9 24 9q13 0 23 -10t10 -23q0 -14 -9 -24q-10 -10 -24 -10zM121 730q-14 0 -24 10t-10 24t10 24q10 9 24 9q13 0 23 -10t10 -23q0 -14 -9 -24q-10 -10 -24 -10zM100 -123h-60v823h60v-823z" />
    <glyph glyph-name="afii10023" unicode="&#x401;" horiz-adv-x="200" 
d="M60 742q-14 0 -24 10t-10 24t10 24q10 9 24 9t24 -10q9 -11 9 -23q0 -14 -9 -24q-10 -10 -24 -10zM160 742q-14 0 -24 10t-10 24t10 24q10 9 24 9t24 -10q9 -11 9 -23q0 -14 -9 -24q-10 -10 -24 -10zM100 646v-494h80v-52h-80v-170h80v-53h-140v222h-40l27 53h13v548h140
v-54h-80z" />
    <glyph glyph-name="afii10062" unicode="&#x40e;" horiz-adv-x="274" 
d="M233 -4q-2 -48 -23.5 -83.5t-73.5 -39.5q-51 2 -76 34.5t-25 82.5v60h56v-68q0 -16 9 -32.5t36 -16.5q36 3 36 49v115h-79l-59 57v546h60v-516l29 -31h49l1 548l60 -1v-704zM136 -127q-1 0 -1.5 -0.5t-1.5 -0.5h5q-1 0 -1 0.5t-1 0.5zM144 789q13 0 22 8.5t9 22.5v3h48
v-3q0 -35 -22.5 -57t-56.5 -22t-56.5 22t-22.5 57v3h48v-3q0 -14 9 -22.5t22 -8.5z" />
    <glyph glyph-name="afii10110" unicode="&#x45e;" horiz-adv-x="245" 
d="M44 -123l53 123q-87 93 -87 250h60q0 -128 51 -182l59 182h65l-135 -373h-66zM124 351q13 0 22 8.5t9 22.5v3h48v-3q0 -35 -22.5 -57t-56.5 -22t-56.5 22t-22.5 57v3h48v-3q0 -14 9 -22.5t22 -8.5z" />
    <glyph glyph-name="afii10071" unicode="&#x451;" horiz-adv-x="271" 
d="M246 101v51q0 43 -30 71.5t-73 28.5q-23 0 -45 -9t-38 -27q-34 -37 -34 -91q0 -57 34 -91q33 -37 86 -37q32 0 58 15v54q-23 -14 -58 -14q-13 0 -26 5t-22 15q-12 12 -16 29h164zM144 198q21 0 35 -16.5t13 -31.5h-109q5 20 21.5 34t39.5 14zM91 300q-14 0 -24 10t-10 24
t10 24q10 9 24 9q13 0 24 -9q9 -11 9 -24q0 -14 -9 -24q-10 -10 -24 -10zM191 300q-14 0 -24 10t-10 24t10 24q10 9 24 9q13 0 24 -9q9 -11 9 -24q0 -14 -9 -24q-10 -10 -24 -10z" />
    <glyph glyph-name="afii61352" unicode="&#x2116;" horiz-adv-x="452" 
d="M240 700v-823h-60v676l-80 54v-730h-60v833l140 -93v83h60zM404 510v-51h-110v51h110zM352 700q29 0 49 -21q19 -22 19 -53q0 -34 -19 -54q-19 -22 -49 -22t-49 22q-19 20 -19 54q0 31 19 53q19 21 49 21zM352 658q-23 0 -23 -33t23 -33t23 33t-23 33z" />
    <glyph glyph-name="afii10053" unicode="&#x404;" horiz-adv-x="486" 
d="M11 99l27 53h42q-17 62 -17 136q0 129 57 227q57 96 152 144q96 47 212 47v-58q-153 0 -255 -99q-103 -99 -103 -262q0 -75 20 -135h233v-52l-210 -1q24 -41 59 -74q100 -96 256 -96v-58q-180 0 -301 113q-53 49 -83 115h-89z" />
    <glyph glyph-name="afii10101" unicode="&#x454;" horiz-adv-x="245" 
d="M155 198q-56 0 -69 -48h76v-49h-76q13 -49 69 -49q37 0 65 19v-54q-34 -20 -65 -20q-53 0 -87 29q-33 28 -41 75h-35l25 49h10q8 47 41 75q32 28 87 28q34 0 65 -19v-54q-29 18 -65 18z" />
    <glyph glyph-name="e" unicode="e" horiz-adv-x="271" 
d="M82 101q4 -17 16 -29q9 -10 22 -15t26 -5q35 0 58 14v-54q-26 -15 -58 -15q-53 0 -86 37q-34 34 -34 91q0 54 34 91q16 18 38 27t45 9q43 0 73 -28.5t30 -71.5v-51h-164zM144 198q-23 0 -39.5 -14t-21.5 -34h109q1 15 -13 31.5t-35 16.5z" />
    <glyph glyph-name="afii10103" unicode="&#x456;" horiz-adv-x="133" 
d="M68 307q-14 0 -24 10t-10 24t10 24q10 9 24 9q13 0 24 -9q9 -11 9 -24q0 -14 -9 -24q-10 -10 -24 -10zM96 0h-58v250h58v-250z" />
    <glyph glyph-name="afii10104" unicode="&#x457;" horiz-adv-x="130" 
d="M18 306q-14 0 -24 10t-10 24t10 24q10 9 24 9t24 -10q9 -11 9 -23q0 -14 -9 -24q-10 -10 -24 -10zM118 306q-14 0 -24 10t-10 24t10 24q10 9 24 9t24 -10q9 -11 9 -23q0 -14 -9 -24q-10 -10 -24 -10zM94 0h-58v250h58v-250z" />
    <glyph glyph-name="afii10050" unicode="&#x490;" horiz-adv-x="217" 
d="M144 784h53v-138h-97v-769h-60v823l104 1v83z" />
    <glyph glyph-name="afii10098" unicode="&#x491;" horiz-adv-x="214" 
d="M144 334h53v-138h-110v-196h-58v250l115 1v83z" />
    <glyph glyph-name="space" unicode=" " horiz-adv-x="191" 
 />
  </font>
</defs>
</svg>
