<svg xmlns="http://www.w3.org/2000/svg" width="59.272" height="37.905" viewBox="0 0 59.272 37.905">
  <g id="arrow_2" data-name="arrow 2" transform="translate(0)">
    <g id="Layer_x0020_1" transform="translate(26.104 9.257)">
      <path id="Контур_21" data-name="Контур 21" d="M3.1,3.2c-1.243,0-2.25.53-2.25,1.185S1.861,5.569,3.1,5.569H52.6c1.243,0,2.25-.53,2.25-1.185S53.846,3.2,52.6,3.2H3.1Z" transform="translate(-26.958 5.311)" fill="#464646"/>
      <path id="Контур_22" data-name="Контур 22" d="M6.036,2.014A1.184,1.184,0,0,0,4.361,3.689l7.674,7.674L4.361,19.037a1.184,1.184,0,0,0,1.675,1.675l8.5-8.5.007-.007a1.185,1.185,0,0,0,0-1.675h0L6.036,2.014Z" transform="translate(13.535 -1.667)" fill="#464646"/>
    </g>
    <rect id="Прямоугольник_17" data-name="Прямоугольник 17" width="37.905" height="37.905" transform="translate(21.366)" fill="none"/>
  </g>
</svg>
