<svg id="shopping-basket" xmlns="http://www.w3.org/2000/svg" width="24.813" height="23.133" viewBox="0 0 24.813 23.133">
  <g id="group-23svg">
    <path id="path-1_15_" d="M22.308,37.294H13.081a4.1,4.1,0,0,1-3.863-2.9L6.688,26.4a3.967,3.967,0,0,1,3.863-5.153H24.838A3.944,3.944,0,0,1,28.7,26.373l-2.529,8.088A4.042,4.042,0,0,1,22.308,37.294Z" transform="translate(-4.075 -14.161)" fill="none"/>
    <path id="path-2_15_" d="M16.367,33.414H7.14a4.57,4.57,0,0,1-4.4-3.2L.213,22.177a4.509,4.509,0,0,1,.669-4.055A4.577,4.577,0,0,1,4.61,16.25H18.9a4.573,4.573,0,0,1,3.723,1.874,4.527,4.527,0,0,1,.675,4.07l-2.53,8.042A4.561,4.561,0,0,1,16.367,33.414ZM4.61,17.369a3.468,3.468,0,0,0-2.826,1.416,3.4,3.4,0,0,0-.5,3.057L3.811,29.88A3.456,3.456,0,0,0,7.14,32.294h9.227A3.447,3.447,0,0,0,19.7,29.9l2.53-8.042a3.414,3.414,0,0,0-.508-3.071A3.463,3.463,0,0,0,18.9,17.369Z" transform="translate(0 -11.026)"/>
    <path id="path-3_15_" d="M26.255,8.406a.56.56,0,0,1-.56-.56V5.795A2.428,2.428,0,0,0,23.27,3.369h-5.6a2.428,2.428,0,0,0-2.425,2.425V7.847a.56.56,0,1,1-1.119,0V5.795A3.549,3.549,0,0,1,17.674,2.25h5.6a3.549,3.549,0,0,1,3.545,3.545V7.847A.56.56,0,0,1,26.255,8.406Z" transform="translate(-8.857 -2.25)"/>
  </g>
</svg>
