<svg id="shopping-basket-activ" xmlns="http://www.w3.org/2000/svg" width="24.813" height="23.133" viewBox="0 0 24.813 23.133">
  <g id="group-22svg">
    <path id="path-1_14_" d="M22.309,37.3H13.082a4.1,4.1,0,0,1-3.863-2.9L6.689,26.4a3.967,3.967,0,0,1,3.863-5.153H24.838A3.944,3.944,0,0,1,28.7,26.374l-2.53,8.088A4.041,4.041,0,0,1,22.309,37.3Z" transform="translate(-4.076 -14.162)" fill="#edc951"/>
    <path id="path-2_14_" d="M16.367,33.415H7.14a4.571,4.571,0,0,1-4.4-3.2L.213,22.178a4.507,4.507,0,0,1,.669-4.055A4.577,4.577,0,0,1,4.61,16.251H18.9a4.573,4.573,0,0,1,3.723,1.874,4.526,4.526,0,0,1,.675,4.069l-2.531,8.042A4.56,4.56,0,0,1,16.367,33.415ZM4.61,17.37a3.468,3.468,0,0,0-2.826,1.416,3.4,3.4,0,0,0-.5,3.057L3.81,29.881A3.457,3.457,0,0,0,7.14,32.3h9.227A3.447,3.447,0,0,0,19.7,29.9l2.53-8.042a3.414,3.414,0,0,0-.508-3.071A3.463,3.463,0,0,0,18.9,17.37Z" transform="translate(0 -11.027)"/>
    <path id="path-3_14_" d="M26.251,8.407a.56.56,0,0,1-.56-.56V5.8A2.428,2.428,0,0,0,23.266,3.37h-5.6A2.428,2.428,0,0,0,15.244,5.8V7.848a.56.56,0,1,1-1.119,0V5.8A3.549,3.549,0,0,1,17.67,2.251h5.6A3.549,3.549,0,0,1,26.811,5.8V7.848A.56.56,0,0,1,26.251,8.407Z" transform="translate(-8.855 -2.251)"/>
    <path id="path-4_14_" d="M28.694,38.494h-.017a.619.619,0,0,1-.4-.25l-1.231-1.421a.579.579,0,0,1,.048-.806.559.559,0,0,1,.79.04l.837.941,2.359-2.361a.559.559,0,1,1,.791.79l-2.78,2.842A.634.634,0,0,1,28.694,38.494Z" transform="translate(-16.865 -22.45)"/>
  </g>
</svg>
