<svg xmlns="http://www.w3.org/2000/svg" width="20.541" height="18.561" viewBox="0 0 20.541 18.561">
  <g id="Heart-activ" transform="translate(0.772 0.839)">
    <g id="Iconly_Bold_Heart" data-name="Iconly/Bold/Heart" transform="translate(0 -0.5)">
      <g id="Heart" transform="translate(2 2.501)">
        <path id="Контур_9" data-name="Контур 9" d="M6.28,0A6.243,6.243,0,0,1,8.111.33H8.17a.349.349,0,0,1,.09.059A3.526,3.526,0,0,1,8.89.65h0l.38.17c.15.08.33.229.43.29A3.038,3.038,0,0,1,10,1.3,6.264,6.264,0,0,1,13.85,0a5.842,5.842,0,0,1,1.86.29c3.691,1.2,5.021,5.25,3.91,8.79a12.728,12.728,0,0,1-3.009,4.809,38.456,38.456,0,0,1-6.331,4.96h0L10.03,19l-.26-.161A38.094,38.094,0,0,1,3.4,13.879,12.933,12.933,0,0,1,.39,9.08C-.74,5.54.59,1.49,4.321.269A4.519,4.519,0,0,1,5.21.06h.12A5.8,5.8,0,0,1,6.17,0h.11Zm8.91,3.16a.8.8,0,0,0-1.01.5.818.818,0,0,0,.5,1.029,1.674,1.674,0,0,1,1.07,1.57h0V6.29a.86.86,0,0,0,.19.62.838.838,0,0,0,.57.29.822.822,0,0,0,.79-.761h0V6.32A3.3,3.3,0,0,0,15.19,3.16Z" transform="translate(-1)" fill="#edc951"/>
      </g>
    </g>
    <g id="Iconly_Curved_Heart" data-name="Iconly/Curved/Heart" transform="translate(-2.55 -3.55)">
      <g id="Heart-2" data-name="Heart" transform="translate(2.55 3.55)">
        <path id="Stroke-1" d="M.372,8.9C-.7,5.546.554,1.381,4.071.249A4.87,4.87,0,0,1,9.5,1.939a4.73,4.73,0,0,1,5.42-1.69c3.516,1.132,4.778,5.3,3.706,8.647-1.67,5.31-7.5,8.076-9.126,8.076S2.1,14.268.372,8.9Z" fill="none" stroke="#000" stroke-linecap="round" stroke-linejoin="round" stroke-width="1.5" fill-rule="evenodd"/>
        <path id="Stroke-3" d="M13.238,4.014a2.154,2.154,0,0,1,1.917,2.422" fill="none" stroke="#000" stroke-linecap="round" stroke-linejoin="round" stroke-width="1.5" fill-rule="evenodd"/>
      </g>
    </g>
  </g>
</svg>
