<svg id="mapmarker" xmlns="http://www.w3.org/2000/svg" width="15.125" height="19.446" viewBox="0 0 15.125 19.446">
  <path id="mapmarker-2" data-name="mapmarker" d="M12.562,14.884a4.321,4.321,0,1,1,4.321-4.321A4.321,4.321,0,0,1,12.562,14.884Zm0-1.08a3.241,3.241,0,1,0-3.241-3.241A3.241,3.241,0,0,0,12.562,13.8Zm.366,8.5a.54.54,0,0,1-.733,0C7.414,17.889,5,13.989,5,10.562a7.562,7.562,0,0,1,15.125,0C20.125,13.989,17.71,17.889,12.929,22.3Zm6.116-11.74a6.482,6.482,0,0,0-12.964,0c0,2.973,2.146,6.52,6.482,10.605C16.9,17.083,19.044,13.535,19.044,10.562Z" transform="translate(-5 -3)" fill="#fff"/>
</svg>
