<svg id="mail" xmlns="http://www.w3.org/2000/svg" width="20" height="14.01" viewBox="0 0 20 14.01">
  <path id="mail-2" data-name="mail" d="M3.847,17.86a1.494,1.494,0,0,0,.653.149h15a1.494,1.494,0,0,0,.653-.149L14.245,12.3l-1.927,1.587a.5.5,0,0,1-.636,0L9.755,12.3,3.847,17.86Zm-.7-.711.014-.014,5.82-5.478-5.8-4.772q-.019-.016-.036-.033A1.494,1.494,0,0,0,3,7.5v9.01a1.494,1.494,0,0,0,.143.64Zm17.714,0A1.494,1.494,0,0,0,21,16.51V7.5a1.494,1.494,0,0,0-.146-.647q-.017.017-.036.033l-5.8,4.772,5.82,5.478.014.014Zm-.712-11A1.494,1.494,0,0,0,19.5,6H4.5a1.494,1.494,0,0,0-.644.145L12,12.852l8.144-6.707ZM4.5,5h15A2.5,2.5,0,0,1,22,7.5v9.01a2.5,2.5,0,0,1-2.5,2.5H4.5A2.5,2.5,0,0,1,2,16.51V7.5A2.5,2.5,0,0,1,4.5,5Z" transform="translate(-2 -5)" fill="#fff"/>
</svg>
