<svg id="icon_button" xmlns="http://www.w3.org/2000/svg" width="47.988" height="44.84" viewBox="0 0 47.988 44.84">
  <g id="Сгруппировать_21" data-name="Сгруппировать 21" transform="translate(-8.006 -9.58)">
    <path id="Контур_16" data-name="Контур 16" d="M25.091,30.469H11.81a3.808,3.808,0,0,1-3.8-3.8V13.384a3.808,3.808,0,0,1,3.8-3.8H25.091a3.808,3.808,0,0,1,3.8,3.8V26.665A3.808,3.808,0,0,1,25.091,30.469ZM11.81,11.58a1.807,1.807,0,0,0-1.8,1.8V26.665a1.807,1.807,0,0,0,1.8,1.8H25.091a1.807,1.807,0,0,0,1.8-1.8V13.384a1.807,1.807,0,0,0-1.8-1.8Z" fill="#464646"/>
  </g>
  <g id="Сгруппировать_22" data-name="Сгруппировать 22" transform="translate(-8.006 -9.58)">
    <path id="Контур_17" data-name="Контур 17" d="M45.549,30.469A10.444,10.444,0,1,1,55.993,20.024,10.456,10.456,0,0,1,45.549,30.469Zm0-18.889a8.444,8.444,0,1,0,8.444,8.444A8.454,8.454,0,0,0,45.549,11.58Z" fill="#464646"/>
  </g>
  <g id="Сгруппировать_23" data-name="Сгруппировать 23" transform="translate(-8.006 -9.58)">
    <path id="Контур_18" data-name="Контур 18" d="M18.451,54.42A10.444,10.444,0,1,1,28.9,43.976,10.456,10.456,0,0,1,18.451,54.42Zm0-18.889A8.444,8.444,0,1,0,26.9,43.975,8.454,8.454,0,0,0,18.451,35.531Z" fill="#464646"/>
  </g>
  <g id="Сгруппировать_24" data-name="Сгруппировать 24" transform="translate(-8.006 -9.58)">
    <path id="Контур_19" data-name="Контур 19" d="M52.19,54.42H38.909a3.808,3.808,0,0,1-3.8-3.8V37.335a3.808,3.808,0,0,1,3.8-3.8H52.19a3.808,3.808,0,0,1,3.8,3.8V50.616A3.808,3.808,0,0,1,52.19,54.42ZM38.909,35.531a1.807,1.807,0,0,0-1.8,1.8V50.616a1.807,1.807,0,0,0,1.8,1.8H52.19a1.807,1.807,0,0,0,1.8-1.8V37.335a1.807,1.807,0,0,0-1.8-1.8Z" fill="#464646"/>
  </g>
</svg>
